<?xml version="1.0" encoding="utf-8"?>
<!-- Generator: Adobe Illustrator 24.0.1, SVG Export Plug-In . SVG Version: 6.00 Build 0)  -->
<svg version="1.1" id="Capa_1" xmlns="http://www.w3.org/2000/svg" xmlns:xlink="http://www.w3.org/1999/xlink" x="0px" y="0px"
	 viewBox="0 0 201.7 181.6" style="enable-background:new 0 0 201.7 181.6;" xml:space="preserve">
<style type="text/css">
	.st0{fill:#311E47;}
	.st1{fill:#8E78A7;}
	.st2{fill:#634E80;}
</style>
<g>
	<path class="st0" d="M127,176.4h-34c-1.3,0-2.5-0.6-3.3-1.7L4,54.2c-1-1.3,0-3.2,1.7-3.2H40c1.3,0,2.6,0.6,3.3,1.7l85.4,120.5
		C129.6,174.5,128.6,176.4,127,176.4z"/>
	<path class="st1" d="M42.5,114.1L0.4,173.2c-1,1.3,0,3.2,1.6,3.2h27.3c0.7,0,1.3-0.3,1.6-0.9l32.9-46.2l29.5-41.5
		c4.5-6.4,11.9-10.2,19.7-10.2h0V51l-0.4,0c-15.9,0-30.9,7.7-40.1,20.7L42.5,114.1z"/>
	<path class="st2" d="M125.4,77.3V51h-12.2v26.6c1.2-0.2,2.5-0.3,3.7-0.3H125.4z"/>
</g>
</svg>
