<?xml version="1.0" standalone="no"?>
<!DOCTYPE svg PUBLIC "-//W3C//DTD SVG 1.1//EN" "http://www.w3.org/Graphics/SVG/1.1/DTD/svg11.dtd" >
<svg xmlns="http://www.w3.org/2000/svg">
<metadata>Generated by IcoMoon</metadata>
<defs>
<font id="icomoon" horiz-adv-x="1024">
<font-face units-per-em="1024" ascent="960" descent="-64" />
<missing-glyph horiz-adv-x="1024" />
<glyph unicode="&#x20;" horiz-adv-x="512" d="" />
<glyph unicode="&#xe900;" glyph-name="plus-ol" d="M988.16 483.84h-435.2v435.2c0 25.6-20.48 40.96-40.96 40.96s-35.84-15.36-35.84-40.96v-435.2h-435.2c-25.6 0-40.96-15.36-40.96-35.84s15.36-40.96 40.96-40.96h435.2v-435.2c0-20.48 15.36-35.84 40.96-35.84s40.96 15.36 40.96 35.84v435.2h435.2c20.48 0 40.96 15.36 40.96 40.96s-25.6 35.84-46.080 35.84z" />
<glyph unicode="&#xe901;" glyph-name="eliminar-sl" d="M901.12 837.12h-215.040c5.12 66.56-51.2 122.88-122.88 122.88h-102.4c-71.68 0-128-56.32-128-122.88h-209.92c-40.96 0-76.8-35.84-76.8-76.8v-30.72c0-46.080 35.84-76.8 76.8-76.8h5.12l30.72-599.040c5.12-66.56 56.32-117.76 122.88-117.76h460.8c66.56 0 122.88 51.2 122.88 117.76l35.84 599.040c40.96 0 76.8 35.84 76.8 76.8v30.72c0 40.96-35.84 76.8-76.8 76.8zM430.080 207.36c0-20.48-15.36-40.96-40.96-40.96s-40.96 15.36-40.96 40.96v291.84c0 20.48 15.36 40.96 40.96 40.96s40.96-20.48 40.96-40.96v-291.84zM665.6 207.36c0-20.48-15.36-40.96-40.96-40.96s-40.96 15.36-40.96 40.96v291.84c0 20.48 15.36 40.96 40.96 40.96s40.96-20.48 40.96-40.96v-291.84z" />
<glyph unicode="&#xe902;" glyph-name="mas-opciones" d="M204.8 448c0-56.554-45.846-102.4-102.4-102.4s-102.4 45.846-102.4 102.4c0 56.554 45.846 102.4 102.4 102.4s102.4-45.846 102.4-102.4zM1024 448c0-56.554-45.846-102.4-102.4-102.4s-102.4 45.846-102.4 102.4c0 56.554 45.846 102.4 102.4 102.4s102.4-45.846 102.4-102.4zM614.4 448c0-56.554-45.846-102.4-102.4-102.4s-102.4 45.846-102.4 102.4c0 56.554 45.846 102.4 102.4 102.4s102.4-45.846 102.4-102.4z" />
<glyph unicode="&#xe903;" glyph-name="salir" horiz-adv-x="1039" d="M665.6 176.64v-40.96c0-20.48-15.36-40.96-40.96-40.96h-194.56v686.080c0 40.96-25.6 81.92-66.56 97.28l-15.36 5.12h276.48c20.48 0 40.96-15.36 40.96-40.96v-194.56h76.8v194.56c0 61.44-51.2 117.76-117.76 117.76h-496.64c0 0-5.12 0-5.12 0s0 0 0 0c-56.32 0-107.52-46.080-107.52-107.52v-732.16c0-40.96 25.6-81.92 66.56-97.28l215.040-76.8c10.24-10.24 20.48-10.24 30.72-10.24 46.080 0 92.16 35.84 102.4 81.92h194.56c61.44 0 117.76 51.2 117.76 117.76v204.8h-76.8v-163.84zM353.28 38.4c0-15.36-15.36-25.6-25.6-25.6-5.12 0-5.12 0-10.24 0l-215.040 76.8c-10.24 5.12-15.36 15.36-15.36 25.6v737.28c0 20.48 15.36 30.72 30.72 30.72 5.12 0 5.12 0 10.24 0l204.8-76.8c10.24-5.12 15.36-15.36 15.36-25.6v-742.4zM1013.76 519.68l-158.72 158.72c-15.36 15.36-40.96 15.36-56.32 0s-15.36-40.96 0-56.32l92.16-92.16h-266.24c-20.48 0-40.96-15.36-40.96-40.96s15.36-40.96 40.96-40.96h266.24l-87.040-87.040c-15.36-15.36-15.36-40.96 0-56.32 5.12-5.12 15.36-10.24 25.6-10.24s20.48 5.12 25.6 10.24l153.6 153.6c20.48 25.6 20.48 51.2 5.12 61.44z" />
<glyph unicode="&#xe904;" glyph-name="buscar-sl" d="M778.24 238.080c66.56 76.8 107.52 174.080 107.52 286.72 0 240.64-194.56 440.32-440.32 440.32s-440.32-199.68-440.32-445.44 194.56-440.32 440.32-440.32c107.52 0 204.8 35.84 281.6 102.4l230.4-235.52c5.12-5.12 15.36-10.24 25.6-10.24s20.48 5.12 25.6 10.24c15.36 15.36 15.36 40.96 0 56.32l-230.4 235.52zM445.44 181.76c-189.44 0-343.040 153.6-343.040 337.92 0 189.44 153.6 337.92 337.92 337.92 189.44 0 337.92-153.6 337.92-337.92 5.12-184.32-148.48-337.92-332.8-337.92zM706.56 519.68c0-144.213-116.907-261.12-261.12-261.12s-261.12 116.907-261.12 261.12c0 144.213 116.907 261.12 261.12 261.12s261.12-116.907 261.12-261.12z" />
<glyph unicode="&#xe905;" glyph-name="ordenar" horiz-adv-x="1080" d="M71.68 765.44h476.16c30.72 0 51.2 20.48 51.2 51.2s-20.48 51.2-51.2 51.2h-476.16c-30.72 0-51.2-20.48-51.2-51.2s25.6-51.2 51.2-51.2zM373.76 565.76h-302.080c-30.72 0-51.2-20.48-51.2-51.2s20.48-51.2 51.2-51.2h296.96c30.72 0 51.2 20.48 51.2 51.2s-20.48 51.2-46.080 51.2zM220.16 263.68h-148.48c-30.72 0-51.2-20.48-51.2-51.2s20.48-51.2 51.2-51.2h148.48c30.72 0 51.2 20.48 51.2 51.2s-20.48 51.2-51.2 51.2zM1044.48 238.080c-15.36 15.36-40.96 15.36-56.32 0l-158.72-168.96v849.92c5.12 25.6-10.24 40.96-30.72 40.96s-40.96-15.36-40.96-40.96v-849.92l-158.72 168.96c-15.36 15.36-40.96 15.36-56.32 0s-15.36-40.96 0-56.32l225.28-235.52c0 0 0 0 0 0 5.12-5.12 5.12-5.12 10.24-5.12 0 0 0 0 5.12 0s10.24-5.12 15.36-5.12 10.24 0 15.36 5.12c0 0 0 0 5.12 0s5.12 5.12 10.24 5.12c0 0 0 0 0 0l225.28 235.52c10.24 20.48 5.12 40.96-10.24 56.32z" />
<glyph unicode="&#xe906;" glyph-name="refrescar" d="M40.96 616.96c5.12-10.24 10.24-15.36 15.36-20.48s15.36-5.12 20.48-5.12c5.12 0 5.12 0 10.24 0l230.4 51.2c20.48 5.12 35.84 25.6 30.72 46.080-5.12 15.36-25.6 30.72-46.080 25.6l-158.72-35.84c76.8 128 215.040 204.8 368.64 204.8 209.92 0 389.12-148.48 430.080-353.28 0-20.48 15.36-30.72 35.84-30.72 0 0 5.12 0 5.12 0 20.48 5.12 35.84 25.6 30.72 46.080-46.080 240.64-256 414.72-501.76 414.72-163.84 0-317.44-81.92-409.6-209.92l-20.48 117.76c0 20.48-20.48 35.84-40.96 30.72-20.48 0-35.84-20.48-35.84-40.96l30.72-220.16c0-5.12 0-15.36 5.12-20.48zM983.040 279.040c0 10.24-5.12 20.48-15.36 25.6s-20.48 10.24-30.72 5.12l-230.4-51.2c-20.48-5.12-35.84-25.6-30.72-46.080s25.6-35.84 46.080-30.72l158.72 35.84c-76.8-128-215.040-204.8-368.64-204.8-209.92 0-389.12 148.48-430.080 353.28-5.12 20.48-25.6 35.84-46.080 30.72s-35.84-25.6-30.72-46.080c46.080-240.64 261.12-414.72 506.88-414.72 168.96 0 317.44 81.92 414.72 209.92l15.36-117.76c5.12-20.48 20.48-30.72 35.84-30.72 0 0 5.12 0 5.12 0 20.48 5.12 35.84 20.48 30.72 40.96l-30.72 240.64z" />
<glyph unicode="&#xe907;" glyph-name="inbox-ol" horiz-adv-x="1203" d="M1177.6 417.28v5.12c0 5.12-5.12 10.24-5.12 15.36v0l-179.2 419.84c-25.6 61.44-87.040 102.4-153.6 102.4h-476.16c-66.56 0-128-40.96-153.6-102.4l-179.2-414.72c0-5.12-5.12-10.24-5.12-15.36v-5.12c0-5.12 0-5.12 0-10.24v-307.2c0-92.16 76.8-168.96 168.96-168.96h814.080c92.16 0 168.96 76.8 168.96 168.96v307.2c0 0 0 5.12 0 5.12zM281.6 826.88c15.36 35.84 46.080 56.32 87.040 56.32h471.040c35.84 0 71.68-20.48 87.040-56.32l148.48-337.92h-102.4c-76.8 0-138.24-46.080-163.84-117.76l-25.6-81.92h-358.4l-25.6 81.92c-20.48 71.68-87.040 117.76-163.84 117.76h-102.4l148.48 337.92zM1100.8 104.96c0-51.2-40.96-92.16-92.16-92.16h-814.080c-51.2 0-92.16 40.96-92.16 92.16v307.2h138.24c40.96 0 76.8-25.6 87.040-66.56l30.72-107.52c5.12-15.36 20.48-25.6 35.84-25.6h414.72c15.36 0 30.72 10.24 35.84 25.6l35.84 107.52c10.24 40.96 46.080 66.56 87.040 66.56h138.24v-307.2h-5.12z" />
<glyph unicode="&#xe908;" glyph-name="imprimir-sl-alt" d="M906.24 611.84h-788.48c-61.44 0-117.76-51.2-117.76-117.76v-291.84c0-61.44 51.2-117.76 117.76-117.76h66.56v261.12h645.12v-256h66.56c61.44 0 117.76 51.2 117.76 117.76v286.72c5.12 66.56-46.080 117.76-107.52 117.76zM860.16 427.52h-61.44c-30.72 0-51.2 20.48-51.2 51.2s20.48 51.2 51.2 51.2h61.44c30.72 0 51.2-20.48 51.2-51.2s-20.48-51.2-51.2-51.2zM276.48 48.64c0-61.44 51.2-117.76 117.76-117.76h240.64c61.44 0 117.76 51.2 117.76 117.76v209.92h-476.16v-209.92zM445.44 192h138.24c15.36 0 25.6-10.24 25.6-25.6s-15.36-25.6-30.72-25.6h-133.12c-15.36 0-25.6 10.24-25.6 25.6s10.24 25.6 25.6 25.6zM445.44 53.76h138.24c15.36 0 25.6-10.24 25.6-25.6s-10.24-25.6-25.6-25.6h-138.24c-15.36 0-25.6 10.24-25.6 25.6s10.24 25.6 25.6 25.6zM798.72 842.24c0 61.44-51.2 117.76-117.76 117.76h-337.92c-66.56 0-117.76-51.2-117.76-117.76v-148.48h573.44v148.48z" />
<glyph unicode="&#xe909;" glyph-name="usuario" d="M512 960c-281.6 0-512-230.4-512-512 0-138.24 56.32-266.24 143.36-358.4 0 122.88 81.92 179.2 368.64 179.2s368.64-56.32 368.64-179.2c92.16 92.16 143.36 220.16 143.36 358.4 0 281.6-230.4 512-512 512zM512 386.56c-107.52 0-194.56 87.040-194.56 194.56s87.040 194.56 194.56 194.56 194.56-87.040 194.56-194.56c0-107.52-87.040-194.56-194.56-194.56z" />
<glyph unicode="&#xe90a;" glyph-name="vista-rapida-ol" d="M558.080 12.8h-332.8c-35.84 0-66.56 30.72-66.56 66.56v737.28c0 35.84 30.72 66.56 66.56 66.56h568.32c35.84 0 66.56-30.72 66.56-66.56v-496.64c0-20.48 15.36-40.96 40.96-40.96s40.96 15.36 40.96 40.96v496.64c0 81.92-66.56 143.36-143.36 143.36h-573.44c-76.8 0-143.36-66.56-143.36-143.36v-732.16c0-81.92 66.56-143.36 143.36-143.36h332.8c20.48 0 40.96 15.36 40.96 35.84s-20.48 35.84-40.96 35.84zM931.84 2.56l-215.040 220.16c30.72 40.96 46.080 92.16 46.080 143.36 0 138.24-112.64 245.76-245.76 245.76-138.24 0-245.76-112.64-245.76-245.76 0-138.24 112.64-245.76 245.76-245.76 56.32 0 102.4 20.48 143.36 46.080l215.040-220.16c5.12-5.12 15.36-10.24 25.6-10.24s20.48 5.12 25.6 10.24c20.48 20.48 20.48 40.96 5.12 56.32zM517.12 197.12c-92.16 0-168.96 76.8-168.96 168.96s76.8 168.96 168.96 168.96c92.16 0 168.96-76.8 168.96-168.96s-76.8-168.96-168.96-168.96z" />
<glyph unicode="&#xe90b;" glyph-name="copiar" d="M849.92 960h-409.6c-66.56 0-117.76-51.2-117.76-117.76v-168.96h-179.2c-46.080 0-87.040-40.96-87.040-87.040v-568.32c0-46.080 40.96-87.040 87.040-87.040h471.040c46.080 0 87.040 40.96 87.040 87.040v199.68h148.48c61.44 0 117.76 51.2 117.76 117.76v506.88c-5.12 66.56-56.32 117.76-117.76 117.76zM624.64 23.040c0-5.12-5.12-10.24-10.24-10.24h-471.040c-5.12 0-10.24 5.12-10.24 10.24v568.32c0 5.12 5.12 10.24 10.24 10.24h179.2v-261.12c0-61.44 51.2-117.76 117.76-117.76h184.32v-199.68zM885.76 335.36c0-20.48-15.36-40.96-40.96-40.96h-409.6c-20.48 0-40.96 15.36-40.96 40.96v506.88c0 20.48 15.36 40.96 40.96 40.96h409.6c20.48 0 40.96-15.36 40.96-40.96v-506.88z" />
<glyph unicode="&#xe90c;" glyph-name="atras-sl" d="M512 960c-281.6 0-512-230.4-512-512s230.4-512 512-512c281.6 0 512 230.4 512 512s-230.4 512-512 512zM573.44 166.4h-81.92c-20.48 0-40.96 15.36-40.96 40.96s20.48 35.84 40.96 35.84h81.92c71.68 0 133.12 61.44 133.12 133.12s-61.44 133.12-133.12 133.12h-204.8l87.040-81.92c15.36-15.36 15.36-40.96 0-56.32-5.12-5.12-15.36-10.24-25.6-10.24s-20.48 5.12-25.6 10.24l-153.6 143.36c-5.12 10.24-10.24 20.48-10.24 30.72s5.12 20.48 10.24 25.6l148.48 148.48c15.36 15.36 40.96 15.36 56.32 0s15.36-40.96 0-56.32l-81.92-81.92h204.8c112.64 0 209.92-92.16 209.92-209.92-5.12-112.64-97.28-204.8-215.040-204.8z" />
<glyph unicode="&#xe90d;" glyph-name="adelante-sl" d="M512 960c-281.6 0-512-230.4-512-512s230.4-512 512-512 512 230.4 512 512-230.4 512-512 512zM773.12 514.56l-153.6-148.48c-5.12-5.12-15.36-10.24-25.6-10.24s-20.48 5.12-25.6 10.24c-15.36 15.36-15.36 40.96 0 56.32l87.040 81.92h-204.8c-71.68 0-133.12-61.44-133.12-133.12s61.44-133.12 133.12-133.12h81.92c20.48 0 40.96-15.36 40.96-40.96s-15.36-40.96-40.96-40.96h-81.92c-112.64 0-209.92 92.16-209.92 209.92 0 112.64 92.16 209.92 209.92 209.92h204.8l-87.040 81.92c-15.36 15.36-15.36 40.96 0 56.32s40.96 15.36 56.32 0l153.6-148.48c5.12-5.12 10.24-15.36 10.24-25.6-5.12-5.12-10.24-15.36-15.36-25.6z" />
<glyph unicode="&#xe90e;" glyph-name="compartir" d="M798.72 586.24h-158.72v-281.6c0-61.44-51.2-117.76-117.76-117.76h-20.48c-61.44 0-117.76 51.2-117.76 117.76v281.6h-158.72c-46.080 0-81.92-35.84-81.92-81.92v-486.4c0-46.080 35.84-81.92 81.92-81.92h573.44c46.080 0 81.92 35.84 81.92 81.92v486.4c0 46.080-35.84 81.92-81.92 81.92zM711.68 780.8l-163.84 163.84c0 0 0 0 0 0v0c0 0 0 0-5.12 0-5.12 5.12-10.24 5.12-10.24 10.24-5.12 5.12-15.36 5.12-20.48 5.12 0 0 0 0 0 0s0 0 0 0c-5.12 0-15.36 0-20.48-5.12-5.12 0-10.24-5.12-10.24-10.24 0 0 0 0-5.12 0v0c0 0 0 0 0 0l-163.84-163.84c-20.48-20.48-20.48-51.2 0-66.56 20.48-20.48 51.2-20.48 66.56 0l81.92 81.92v-486.4c0-25.6 20.48-51.2 51.2-51.2s51.2 20.48 51.2 51.2v486.4l81.92-81.92c5.12-10.24 20.48-15.36 30.72-15.36s25.6 5.12 35.84 15.36c20.48 20.48 20.48 51.2 0 66.56z" />
<glyph unicode="&#xe90f;" glyph-name="primero" d="M936.96-58.88c-10.24 0-20.48 5.12-25.6 10.24l-440.32 440.32c-15.36 15.36-25.6 35.84-25.6 56.32s10.24 40.96 25.6 56.32l440.32 440.32c15.36 15.36 40.96 15.36 56.32 0s15.36-40.96 0-56.32l-440.32-440.32 440.32-445.44c15.36-15.36 15.36-40.96 0-56.32-10.24 0-20.48-5.12-30.72-5.12zM542.72-64c-10.24 0-20.48 5.12-25.6 10.24l-440.32 440.32c-30.72 30.72-30.72 81.92 0 112.64l440.32 440.32c15.36 15.36 40.96 15.36 56.32 0s15.36-40.96 0-56.32l-445.44-435.2 440.32-445.44c15.36-15.36 15.36-40.96 0-56.32-5.12-5.12-15.36-10.24-25.6-10.24z" />
<glyph unicode="&#xe910;" glyph-name="anterior" d="M686.080-64c-10.24 0-25.6 5.12-30.72 15.36l-337.92 450.56c-20.48 30.72-20.48 66.56 0 97.28l337.92 450.56c10.24 15.36 35.84 20.48 51.2 5.12 15.36-10.24 20.48-35.84 5.12-56.32l-332.8-450.56 337.92-450.56c15.36-15.36 10.24-40.96-5.12-51.2-10.24-10.24-20.48-10.24-25.6-10.24z" />
<glyph unicode="&#xe911;" glyph-name="siguiente" d="M337.92-64c-10.24 0-15.36 0-25.6 10.24-15.36 10.24-20.48 35.84-5.12 51.2l337.92 450.56-337.92 450.56c-10.24 15.36-10.24 40.96 10.24 51.2 15.36 15.36 40.96 10.24 51.2-5.12l337.92-450.56c20.48-25.6 20.48-66.56 0-97.28l-337.92-450.56c-5.12-5.12-20.48-10.24-30.72-10.24z" />
<glyph unicode="&#xe912;" glyph-name="ultimo" d="M87.040-58.88c-10.24 0-20.48 5.12-25.6 10.24-15.36 15.36-15.36 40.96 0 56.32l440.32 440.32-440.32 445.44c-15.36 15.36-15.36 40.96 0 56.32s40.96 15.36 56.32 0l440.32-440.32c15.36-15.36 25.6-35.84 25.6-56.32s-10.24-40.96-25.6-56.32l-440.32-440.32c-10.24-10.24-20.48-15.36-30.72-15.36zM481.28-64c-10.24 0-20.48 5.12-25.6 10.24-15.36 15.36-15.36 40.96 0 56.32l440.32 440.32-440.32 445.44c-15.36 15.36-15.36 40.96 0 56.32s40.96 15.36 56.32 0l440.32-440.32c15.36-15.36 20.48-35.84 20.48-56.32s-10.24-40.96-25.6-56.32l-440.32-440.32c-5.12-10.24-15.36-15.36-25.6-15.36z" />
<glyph unicode="&#xe913;" glyph-name="vista-grip" horiz-adv-x="1536" d="M563.2 960h409.6v-435.2h-409.6v435.2zM563.2 371.2h409.6v-435.2h-409.6v435.2zM409.6 960h-291.84c-66.56 0-117.76-51.2-117.76-117.76v-322.56h409.6v440.32zM0 371.2v-317.44c0-66.56 51.2-117.76 117.76-117.76h291.84v435.2h-409.6zM1536 524.8v317.44c0 66.56-51.2 117.76-112.64 117.76h-296.96v-435.2h409.6zM1126.4-64h291.84c61.44 0 117.76 51.2 117.76 117.76v317.44h-409.6v-435.2z" />
<glyph unicode="&#xe914;" glyph-name="imprimir-ol" d="M337.92 540.16h-76.8c-20.48 0-40.96-20.48-40.96-40.96s15.36-40.96 40.96-40.96h76.8c20.48 5.12 40.96 20.48 40.96 40.96s-20.48 40.96-40.96 40.96zM844.8 698.88v153.6c0 61.44-61.44 117.76-133.12 117.76h-399.36c-71.68 0-133.12-51.2-133.12-117.76v-148.48c-102.4-35.84-179.2-133.12-179.2-245.76v-250.88c0-61.44 51.2-117.76 117.76-117.76h128v-46.080c0-61.44 51.2-117.76 117.76-117.76h307.2c61.44 0 117.76 51.2 117.76 117.76v46.080h128c61.44 0 117.76 51.2 117.76 117.76v250.88c-10.24 112.64-87.040 209.92-189.44 240.64zM256 852.48c0 20.48 25.6 40.96 56.32 40.96h399.36c30.72 0 56.32-20.48 56.32-40.96v-138.24h-512v138.24zM706.56 43.52c0-20.48-15.36-40.96-40.96-40.96h-307.2c-20.48 0-40.96 15.36-40.96 40.96v245.76h384v-245.76zM947.2 207.36c0-20.48-15.36-40.96-40.96-40.96h-128v117.76h10.24c20.48 0 40.96 15.36 40.96 40.96s-15.36 40.96-40.96 40.96h-563.2c-20.48 0-40.96-15.36-40.96-40.96s15.36-40.96 40.96-40.96h15.36v-117.76h-122.88c-20.48 0-40.96 15.36-40.96 40.96v250.88c0 97.28 81.92 179.2 179.2 179.2h512c97.28 0 179.2-81.92 179.2-179.2v-250.88z" />
<glyph unicode="&#xe915;" glyph-name="cancelar" d="M568.32 448l445.44 445.44c15.36 15.36 15.36 40.96 0 56.32s-40.96 15.36-56.32 0l-445.44-445.44-445.44 445.44c-15.36 15.36-40.96 15.36-56.32 0s-15.36-40.96 0-56.32l445.44-445.44-445.44-445.44c-15.36-15.36-15.36-40.96 0-56.32 10.24-5.12 20.48-10.24 30.72-10.24s20.48 5.12 25.6 10.24l445.44 445.44 445.44-445.44c5.12-5.12 15.36-10.24 25.6-10.24s20.48 5.12 25.6 10.24c15.36 15.36 15.36 40.96 0 56.32l-440.32 445.44z" />
<glyph unicode="&#xe916;" glyph-name="check-ol" d="M332.8 84.48c-10.24 0-20.48 5.12-25.6 10.24l-291.84 291.84c-15.36 15.36-15.36 40.96 0 56.32s40.96 15.36 56.32 0l266.24-266.24 619.52 624.64c15.36 15.36 40.96 15.36 56.32 0s15.36-40.96 0-56.32l-655.36-650.24c-5.12-5.12-15.36-10.24-25.6-10.24z" />
<glyph unicode="&#xe917;" glyph-name="ver-sl" horiz-adv-x="1423" d="M1136.64 826.88c-25.6 20.48-107.52 76.8-235.52 112.64-40.96 10.24-87.040 20.48-133.12 20.48 0 0 0 0 0 0-15.36 0-30.72 0-51.2 0 0 0 0 0 0 0s0 0 0 0 0 0 0 0c-15.36 0-35.84 0-51.2 0 0 0 0 0 0 0-51.2-5.12-97.28-10.24-138.24-20.48-133.12-35.84-215.040-97.28-235.52-112.64-209.92-153.6-296.96-378.88-296.96-378.88s174.080-512 716.8-512c542.72 0 716.8 512 716.8 512s-81.92 225.28-291.84 378.88zM711.68 58.88c-220.16 0-399.36 209.92-399.36 465.92 0 81.92 15.36 158.72 51.2 230.4 35.84 25.6 158.72 102.4 348.16 102.4s312.32-76.8 348.16-107.52c35.84-71.68 51.2-148.48 51.2-230.4 5.12-250.88-179.2-460.8-399.36-460.8zM711.68 724.48c-35.84 0-71.68-5.12-102.4-20.48 5.12 0 10.24 0 15.36 0 56.32-10.24 107.52-56.32 117.76-117.76 20.48-102.4-71.68-194.56-174.080-174.080-56.32 10.24-97.28 51.2-112.64 107.52-5.12-20.48-10.24-40.96-10.24-61.44 0-148.48 117.76-266.24 266.24-266.24s266.24 117.76 266.24 266.24-117.76 266.24-266.24 266.24z" />
<glyph unicode="&#xe918;" glyph-name="pintura-sl" d="M742.4 524.8h-148.48v-25.6h-174.080v56.32c71.68 15.36 128 76.8 128 148.48v163.84h15.36c25.6 0 46.080 20.48 46.080 46.080v0c0 25.6-20.48 46.080-46.080 46.080h-399.36c-25.6 0-46.080-20.48-46.080-46.080v0c0-25.6 20.48-46.080 46.080-46.080h194.56v-184.32c0-25.6-20.48-46.080-40.96-46.080v0c-20.48 0-40.96 20.48-40.96 46.080v66.56c0 25.6-10.24 46.080-25.6 46.080v0c-15.36 0-25.6-20.48-25.6-46.080v0c0-25.6-15.36-46.080-30.72-46.080v0c-5.12 0-10.24 0-15.36 5.12v0c0-76.8 56.32-138.24 128-148.48v-61.44h-143.36c-30.72 0-51.2-20.48-51.2-51.2v0h-46.080v25.6h-46.080v-102.4h46.080v25.6h46.080v-35.84c0-15.36-10.24-25.6-25.6-25.6h-25.6c-20.48 0-40.96-15.36-40.96-40.96v-35.84c0-20.48 15.36-40.96 40.96-40.96h20.48c15.36 0 30.72-15.36 25.6-30.72l-46.080-189.44c-10.24-30.72 15.36-61.44 46.080-61.44h97.28c25.6 0 46.080 15.36 51.2 40.96l20.48 87.040h56.32v40.96h40.96c20.48-102.4 56.32-163.84 56.32-163.84h81.92c0 0-66.56 128-66.56 281.6v0h148.48v-30.72h148.48v35.84h87.040v35.84l-87.040 30.72v35.84h66.56v51.2h-66.56v35.84l87.040 35.84v35.84h-87.040v35.84zM220.16 294.4c-35.84 0-61.44 30.72-61.44 61.44s30.72 61.44 61.44 61.44 61.44-30.72 61.44-61.44-25.6-61.44-61.44-61.44zM337.92 135.68v40.96h-30.72l5.12 20.48c5.12 10.24 15.36 20.48 25.6 20.48h30.72c0-30.72 0-56.32 5.12-81.92h-35.84zM977.92 386.56h-56.32c-15.36 0-25.6-10.24-25.6-25.6s10.24-25.6 25.6-25.6h56.32c15.36 0 25.6 10.24 25.6 25.6s-15.36 25.6-25.6 25.6zM896 417.28c5.12 0 10.24 0 15.36 5.12l61.44 35.84c10.24 5.12 15.36 25.6 10.24 35.84s-25.6 15.36-35.84 10.24l-61.44-35.84c-10.24-5.12-15.36-25.6-10.24-35.84s15.36-15.36 20.48-15.36zM967.68 258.56l-61.44 35.84c-10.24 5.12-25.6 5.12-35.84-10.24-5.12-10.24-5.12-25.6 10.24-35.84l61.44-35.84c5.12-5.12 10.24-5.12 15.36-5.12 10.24 0 15.36 5.12 20.48 10.24 10.24 20.48 5.12 35.84-10.24 40.96z" />
<glyph unicode="&#xe919;" glyph-name="configuracion-de-la-gestion" d="M988.16 678.4l-51.2 30.72c5.12 10.24 5.12 25.6 5.12 35.84 0 15.36 0 25.6-5.12 35.84l51.2 30.72-46.080 76.8-51.2-30.72c-20.48 15.36-40.96 30.72-66.56 35.84v66.56h-87.040v-61.44c-20.48-5.12-35.84-15.36-46.080-25.6 35.84-10.24 71.68-30.72 102.4-51.2 35.84-5.12 61.44-30.72 66.56-61.44 35.84-46.080 66.56-97.28 81.92-153.6v-5.12l46.080 76.8zM414.72 151.040c0 0-5.12 0 0 0-51.2-5.12-97.28 25.6-112.64 71.68-56.32 51.2-97.28 117.76-117.76 194.56l-46.080 20.48-51.2-122.88 81.92-35.84c0-20.48 0-35.84 0-56.32s5.12-35.84 15.36-56.32l-71.68-51.2 76.8-102.4 71.68 51.2c30.72-20.48 66.56-35.84 102.4-40.96l10.24-87.040 128 15.36-10.24 87.040c35.84 15.36 66.56 35.84 87.040 66.56l81.92-35.84 30.72 76.8c-40.96-15.36-87.040-25.6-133.12-25.6-51.2 5.12-97.28 15.36-143.36 30.72zM179.2 744.96c10.24 40.96 51.2 66.56 92.16 56.32 10.24 0 15.36-5.12 25.6-10.24 15.36 15.36 35.84 30.72 61.44 46.080-10.24 15.36-25.6 25.6-40.96 30.72l10.24 61.44-87.040 15.36-10.24-61.44c-25.6-5.12-51.2-10.24-71.68-25.6l-46.080 35.84-56.32-66.56 46.080-40.96c-5.12-10.24-5.12-20.48-10.24-35.84 0-10.24-5.12-25.6 0-35.84l-56.32-20.48 30.72-81.92 56.32 20.48c15.36-20.48 35.84-35.84 56.32-46.080 0 0 0 0 0 0 5.12 25.6 15.36 51.2 25.6 76.8-25.6 20.48-35.84 51.2-25.6 81.92zM558.080 826.88c-174.080 0-317.44-143.36-317.44-317.44s143.36-317.44 317.44-317.44 317.44 143.36 317.44 317.44-143.36 317.44-317.44 317.44zM675.84 473.6h-112.64c-20.48 0-40.96 15.36-40.96 40.96v168.96c0 20.48 15.36 40.96 40.96 40.96s40.96-15.36 40.96-40.96v-133.12h76.8c20.48 0 40.96-15.36 40.96-40.96s-25.6-35.84-46.080-35.84z" />
<glyph unicode="&#xe91a;" glyph-name="factura" horiz-adv-x="1060" d="M942.080 960h-824.32c-66.56 0-117.76-51.2-117.76-117.76v-322.56c0-40.96 40.96-61.44 76.8-46.080l46.080 25.6c15.36 10.24 35.84 10.24 51.2 0l20.48-10.24v-440.32c0-61.44 51.2-112.64 112.64-112.64h634.88c61.44 0 117.76 51.2 117.76 117.76v788.48c0 66.56-51.2 117.76-117.76 117.76zM814.080 806.4h46.080c30.72 0 51.2-20.48 51.2-51.2s-20.48-51.2-51.2-51.2h-46.080c-30.72 0-51.2 20.48-51.2 51.2s20.48 51.2 51.2 51.2zM394.24 806.4h128c30.72 0 51.2-20.48 51.2-51.2s-20.48-51.2-51.2-51.2h-128c-30.72 0-51.2 20.48-51.2 51.2s25.6 51.2 51.2 51.2zM394.24 576h128c30.72 0 51.2-20.48 51.2-51.2s-20.48-51.2-51.2-51.2h-128c-30.72 0-51.2 20.48-51.2 51.2s25.6 51.2 51.2 51.2zM394.24 422.4h179.2c30.72 0 51.2-20.48 51.2-51.2s-20.48-51.2-51.2-51.2h-179.2c-30.72 0-51.2 20.48-51.2 51.2s25.6 51.2 51.2 51.2zM860.16 89.6h-465.92c-30.72 0-51.2 20.48-51.2 51.2s20.48 51.2 51.2 51.2h465.92c30.72 0 51.2-20.48 51.2-51.2s-25.6-51.2-51.2-51.2zM814.080 284.16v-15.36c0-10.24-10.24-20.48-20.48-20.48h-15.36c-10.24 0-20.48 10.24-20.48 20.48v15.36c-40.96 5.12-76.8 30.72-87.040 61.44-10.24 20.48 10.24 46.080 30.72 46.080h5.12c15.36 0 25.6-10.24 30.72-20.48 10.24-15.36 30.72-25.6 51.2-25.6 25.6 0 51.2 15.36 51.2 35.84 0 25.6-30.72 30.72-61.44 40.96-51.2 10.24-107.52 25.6-107.52 97.28 0 51.2 35.84 87.040 87.040 92.16v15.36c0 10.24 10.24 20.48 20.48 20.48h15.36c10.24 0 20.48-10.24 20.48-20.48v-10.24c40.96-5.12 66.56-25.6 76.8-56.32 10.24-20.48-5.12-46.080-30.72-46.080v0c-15.36 0-25.6 5.12-30.72 15.36-10.24 15.36-25.6 20.48-46.080 20.48s-46.080-10.24-46.080-30.72c0-20.48 25.6-30.72 61.44-35.84 51.2-10.24 112.64-25.6 112.64-102.4 0-56.32-40.96-87.040-97.28-97.28z" />
<glyph unicode="&#xe91b;" glyph-name="prefactura" d="M829.44 960h-634.88c-66.56 0-117.76-51.2-117.76-117.76v-793.6c0-61.44 51.2-117.76 117.76-117.76h634.88c61.44 0 117.76 51.2 117.76 117.76v793.6c0 66.56-51.2 117.76-117.76 117.76zM481.28 796.16v10.24c0 10.24 10.24 15.36 15.36 15.36h15.36c10.24 0 15.36-10.24 15.36-15.36v-10.24c35.84-5.12 61.44-20.48 71.68-51.2 15.36-20.48 0-40.96-20.48-40.96v0c-10.24 0-25.6 5.12-30.72 15.36-5.12 15.36-20.48 20.48-40.96 20.48s-40.96-10.24-40.96-25.6c0-20.48 25.6-25.6 56.32-35.84 46.080-10.24 102.4-25.6 102.4-92.16 0-51.2-35.84-81.92-87.040-92.16v-15.36c0-10.24-10.24-15.36-15.36-15.36h-20.48c-10.24 0-15.36 10.24-15.36 15.36v20.48c-40.96 5.12-66.56 25.6-81.92 56.32-5.12 15.36 10.24 40.96 30.72 40.96h5.12c10.24 0 20.48-5.12 25.6-15.36 5.12-20.48 25.6-25.6 46.080-25.6 25.6 0 46.080 10.24 46.080 30.72s-25.6 30.72-56.32 35.84c-46.080 10.24-97.28 25.6-97.28 87.040 0 46.080 30.72 76.8 76.8 87.040zM225.28 642.56c0 20.48 15.36 40.96 40.96 40.96h35.84c20.48 0 40.96-15.36 40.96-40.96s-20.48-35.84-40.96-35.84h-35.84c-20.48 0-40.96 15.36-40.96 35.84zM742.4 110.080h-460.8c-20.48 0-40.96 15.36-40.96 40.96s15.36 40.96 40.96 40.96h465.92c20.48 0 40.96-15.36 40.96-40.96s-25.6-40.96-46.080-40.96zM742.4 289.28h-460.8c-20.48 0-40.96 15.36-40.96 40.96s15.36 40.96 40.96 40.96h465.92c20.48 0 40.96-15.36 40.96-40.96s-25.6-40.96-46.080-40.96zM757.76 606.72h-35.84c-20.48 0-40.96 15.36-40.96 40.96s15.36 40.96 40.96 40.96h35.84c20.48 0 40.96-15.36 40.96-40.96s-20.48-40.96-40.96-40.96z" />
<glyph unicode="&#xe91c;" glyph-name="rutas-de-partes-sl" d="M102.4 596.48v5.12c0 87.040 66.56 153.6 153.6 153.6h20.48c25.6 0 51.2 20.48 51.2 51.2s-20.48 51.2-51.2 51.2h-20.48c-66.56 0-122.88 40.96-143.36 102.4-61.44 0-112.64-51.2-112.64-117.76v-312.32c25.6 30.72 61.44 56.32 102.4 66.56zM230.4 396.8c0-42.415-34.385-76.8-76.8-76.8s-76.8 34.385-76.8 76.8c0 42.415 34.385 76.8 76.8 76.8s76.8-34.385 76.8-76.8zM911.36 960h-655.36c0 0 0 0 0 0h20.48c81.92 0 153.6-66.56 153.6-153.6s-66.56-153.6-153.6-153.6h-20.48c-30.72 0-51.2-20.48-51.2-51.2v-5.12c87.040-20.48 153.6-102.4 153.6-199.68s-66.56-174.080-153.6-199.68v-5.12c0-30.72 20.48-51.2 51.2-51.2h563.2v-102.4h-563.2c-87.040 0-153.6 66.56-153.6 153.6v5.12c-40.96 10.24-76.8 30.72-102.4 61.44v-209.92c0-61.44 51.2-112.64 117.76-112.64h793.6c61.44 0 117.76 51.2 117.76 117.76v788.48c-5.12 66.56-56.32 117.76-117.76 117.76zM808.96 279.040c-25.6-46.080-92.16-46.080-117.76 0-66.56 122.88-163.84 322.56-163.84 404.48 0 122.88 97.28 220.16 220.16 220.16s225.28-97.28 225.28-220.16c0-81.92-97.28-281.6-163.84-404.48zM752.64 775.68c-56.32 0-102.4-46.080-102.4-102.4s46.080-102.4 102.4-102.4 102.4 46.080 102.4 102.4c0 56.32-46.080 102.4-102.4 102.4z" />
<glyph unicode="&#xe91d;" glyph-name="buscar-documentos-ol" d="M989.867 789.333l-130.844 136.533c-22.756 22.756-51.2 34.133-79.644 34.133h-460.8c-56.889 0-102.4-45.511-102.4-102.4v-193.422c28.444 11.378 56.889 22.756 85.333 28.444v164.978c0 11.378 5.689 17.067 17.067 17.067h364.089v-113.778c0-79.644 62.578-142.222 142.222-142.222h113.778v-534.756c0-11.378-5.689-17.067-17.067-17.067h-256c-34.133-34.133-68.267-62.578-113.778-85.333h369.778c56.889 0 102.4 45.511 102.4 102.4v625.778c0 28.444-11.378 56.889-34.133 79.644zM938.667 704h-113.778c-28.444 0-56.889 22.756-56.889 56.889v113.778h11.378c5.689 0 17.067-5.689 22.756-11.378l130.844-130.844c5.689-5.689 5.689-11.378 5.689-17.067v-11.378zM676.978 322.844c0 164.978-136.533 295.822-301.511 295.822s-295.822-130.844-295.822-295.822c0-68.267 22.756-130.844 62.578-182.044l-130.844-130.844c-17.067-17.067-17.067-45.511 0-62.578 11.378-5.689 22.756-11.378 28.444-11.378 11.378 0 22.756 5.689 28.444 11.378l130.844 130.844c51.2-34.133 108.089-56.889 176.356-56.889 164.978 0 301.511 136.533 301.511 301.511zM164.978 322.844c0 119.467 96.711 210.489 210.489 210.489 119.467 0 210.489-96.711 210.489-210.489 0-119.467-96.711-210.489-210.489-210.489-113.778-5.689-210.489 91.022-210.489 210.489z" />
<glyph unicode="&#xe91e;" glyph-name="cif" d="M757.76 693.76c0 0 0 0 0 0-51.2 153.6-194.56 266.24-368.64 266.24-215.040 0-389.12-174.080-389.12-389.12 0-168.96 112.64-317.44 261.12-368.64 0 0 0 0 0 0 51.2-153.6 199.68-266.24 368.64-266.24 215.040 0 389.12 174.080 389.12 389.12 5.12 174.080-107.52 317.44-261.12 368.64zM225.28 432.64c-10.24 25.6 10.24 61.44 46.080 61.44h10.24c20.48 0 30.72-10.24 40.96-25.6 10.24-25.6 40.96-35.84 71.68-35.84 35.84 0 71.68 20.48 71.68 51.2 0 35.84-40.96 46.080-87.040 56.32-76.8 15.36-158.72 30.72-158.72 128 0 71.68 46.080 117.76 122.88 128v20.48c0 15.36 10.24 25.6 25.6 25.6h25.6c15.36 0 25.6-10.24 25.6-25.6v-15.36c56.32-10.24 92.16-35.84 112.64-76.8 15.36-30.72-10.24-66.56-40.96-66.56v0c-20.48 0-35.84 10.24-46.080 25.6-10.24 20.48-35.84 30.72-61.44 30.72-35.84 0-66.56-10.24-66.56-40.96s40.96-40.96 87.040-51.2c66.56-15.36 153.6-35.84 153.6-138.24 0-81.92-56.32-128-133.12-138.24v-20.48c0-15.36-10.24-25.6-25.6-25.6h-20.48c-15.36 0-25.6 10.24-25.6 25.6v20.48c-61.44 5.12-107.52 35.84-128 87.040zM634.88 140.8c-51.2 0-97.28 20.48-133.12 56.32 0 0 0 0 0 0 128 35.84 225.28 133.12 261.12 261.12 0 0 0 0 0 0 35.84-35.84 56.32-81.92 56.32-133.12 0-102.4-81.92-184.32-184.32-184.32z" />
<glyph unicode="&#xe91f;" glyph-name="empresa-sl" horiz-adv-x="1229" d="M1157.12 785.92l-389.12-184.32v138.24c0 35.84-40.96 61.44-71.68 46.080l-389.12-184.32v307.2c0 30.72-20.48 51.2-51.2 51.2h-204.8c-30.72 0-51.2-20.48-51.2-51.2v-860.16c0-61.44 51.2-112.64 117.76-112.64h998.4c61.44 0 117.76 51.2 117.76 117.76v686.080c-5.12 40.96-46.080 66.56-76.8 46.080zM409.6 192c0-30.72-20.48-51.2-51.2-51.2h-102.4c-30.72 0-51.2 20.48-51.2 51.2v102.4c0 30.72 20.48 51.2 51.2 51.2h102.4c30.72 0 51.2-20.48 51.2-51.2v-102.4zM716.8 192c0-30.72-20.48-51.2-51.2-51.2h-102.4c-30.72 0-51.2 20.48-51.2 51.2v102.4c0 30.72 20.48 51.2 51.2 51.2h102.4c30.72 0 51.2-20.48 51.2-51.2v-102.4zM1024 192c0-30.72-20.48-51.2-51.2-51.2h-102.4c-30.72 0-51.2 20.48-51.2 51.2v102.4c0 30.72 20.48 51.2 51.2 51.2h102.4c30.72 0 51.2-20.48 51.2-51.2v-102.4z" />
<glyph unicode="&#xe920;" glyph-name="ruta-de-producto-sl" d="M153.6 673.28v56.32h-153.6v-256c0 97.28 66.56 174.080 153.6 199.68zM153.6 960h-35.84c-66.56 0-117.76-51.2-117.76-117.76v-15.36h153.6v133.12zM281.6 473.6c0-42.415-34.385-76.8-76.8-76.8s-76.8 34.385-76.8 76.8c0 42.415 34.385 76.8 76.8 76.8s76.8-34.385 76.8-76.8zM911.36 960h-655.36v-286.72c87.040-20.48 153.6-102.4 153.6-199.68s-66.56-174.080-153.6-199.68v-81.92c0-30.72 20.48-51.2 51.2-51.2h460.8v-102.4h-460.8c-87.040 0-153.6 66.56-153.6 153.6v81.92c-87.040 20.48-153.6 102.4-153.6 199.68v-424.96c0-61.44 51.2-112.64 117.76-112.64h793.6c61.44 0 117.76 51.2 117.76 117.76v788.48c-5.12 66.56-56.32 117.76-117.76 117.76zM757.76 279.040c-25.6-46.080-92.16-46.080-117.76 0-61.44 122.88-158.72 322.56-158.72 404.48 0 122.88 97.28 220.16 220.16 220.16s220.16-97.28 220.16-220.16c0-81.92-97.28-281.6-163.84-404.48zM701.44 775.68c-56.32 0-102.4-46.080-102.4-102.4s46.080-102.4 102.4-102.4 102.4 46.080 102.4 102.4c0 56.32-46.080 102.4-102.4 102.4z" />
<glyph unicode="&#xe921;" glyph-name="layout-planta" d="M1024 494.080v348.16c0 66.56-51.2 117.76-112.64 117.76h-51.2c-61.44 0-117.76-51.2-117.76-117.76v-353.28c0-61.44 51.2-117.76 117.76-117.76h51.2c61.44 5.12 112.64 56.32 112.64 122.88zM640 494.080v348.16c0 61.44-51.2 117.76-117.76 117.76h-409.6c-61.44 0-112.64-51.2-112.64-117.76v-353.28c0-61.44 51.2-117.76 117.76-117.76h409.6c61.44 5.12 112.64 56.32 112.64 122.88zM168.96 273.92h-51.2c-61.44 0-117.76-51.2-117.76-117.76v-107.52c0-61.44 51.2-112.64 117.76-112.64h56.32c61.44 0 112.64 51.2 112.64 117.76v107.52c0 61.44-51.2 112.64-117.76 112.64zM911.36 273.92h-409.6c-61.44 0-117.76-51.2-117.76-117.76v-107.52c0-61.44 51.2-112.64 112.64-117.76h404.48c61.44 0 117.76 51.2 117.76 117.76v107.52c5.12 66.56-46.080 117.76-107.52 117.76z" />
<glyph unicode="&#xe922;" glyph-name="cerrar-ol-xl" d="M583.68 448l424.96 424.96c20.48 20.48 20.48 51.2 0 71.68s-51.2 20.48-71.68 0l-424.96-424.96-424.96 424.96c-20.48 20.48-51.2 20.48-71.68 0s-20.48-51.2 0-71.68l424.96-424.96-424.96-424.96c-20.48-20.48-20.48-51.2 0-71.68 10.24-10.24 20.48-15.36 35.84-15.36s25.6 5.12 35.84 15.36l424.96 424.96 424.96-424.96c10.24-10.24 25.6-15.36 35.84-15.36s25.6 5.12 35.84 15.36c20.48 20.48 20.48 51.2 0 71.68l-424.96 424.96z" />
<glyph unicode="&#xe923;" glyph-name="crear-fila-sl" horiz-adv-x="2145" d="M2022.4 652.8h-512v-409.6h512c61.44 0 117.76 51.2 117.76 117.76v179.2c0 61.44-51.2 112.64-117.76 112.64zM573.44 483.84h-117.76v117.76c0 20.48-15.36 40.96-40.96 40.96s-35.84-20.48-35.84-40.96v-117.76h-112.64c-20.48 0-40.96-15.36-40.96-40.96s15.36-35.84 40.96-35.84h117.76v-112.64c0-20.48 15.36-40.96 40.96-40.96s40.96 15.36 40.96 40.96v117.76h117.76c20.48 0 40.96 15.36 40.96 35.84s-30.72 35.84-51.2 35.84zM419.84 862.72c-225.28 0-414.72-184.32-414.72-414.72s184.32-414.72 414.72-414.72c153.6 0 286.72 81.92 358.4 204.8h583.68v414.72h-588.8c-71.68 122.88-204.8 209.92-353.28 209.92zM419.84 110.080c-184.32 0-337.92 148.48-337.92 337.92s148.48 337.92 337.92 337.92 337.92-148.48 337.92-337.92-153.6-337.92-337.92-337.92z" />
<glyph unicode="&#xe924;" glyph-name="divisor-light" d="M512-64c-5.851 0-11.703 5.851-11.703 11.703v1000.594c0 5.851 5.851 11.703 11.703 11.703s11.703-5.851 11.703-11.703v-1000.594c0-5.851-5.851-11.703-11.703-11.703z" />
<glyph unicode="&#xe925;" glyph-name="ocultar-sl" horiz-adv-x="1423" d="M1228.8 744.96l-122.88-122.88c5.12-30.72 10.24-66.56 10.24-97.28 0-256-179.2-465.92-399.36-465.92-51.2 0-97.28 10.24-143.36 30.72l-112.64-112.64c71.68-25.6 158.72-40.96 250.88-40.96 542.72 0 716.8 512 716.8 512s-56.32 158.72-199.68 296.96zM675.84 192c10.24 0 25.6-5.12 35.84-5.12 148.48 0 266.24 117.76 266.24 266.24 0 10.24 0 25.6-5.12 35.84-5.12-5.12-286.72-281.6-296.96-296.96zM1152 811.52c0 0 0 0 0 0l56.32 61.44c20.48 20.48 20.48 51.2 0 71.68s-51.2 20.48-71.68 0l-71.68-71.68c-35.84 20.48-92.16 46.080-153.6 61.44-5.12 0-5.12 0-10.24 5.12-15.36 5.12-35.84 10.24-51.2 10.24-5.12 0-10.24 0-15.36 5.12-15.36 0-25.6 5.12-40.96 5.12-5.12 0-10.24 0-20.48 0-20.48 0-40.96 0-61.44 0v0 0c-15.36 0-35.84 0-51.2 0 0 0 0 0 0 0-51.2-5.12-97.28-10.24-138.24-20.48-128-35.84-209.92-97.28-230.4-112.64-209.92-153.6-296.96-378.88-296.96-378.88s71.68-215.040 276.48-368.64l-56.32-56.32c-20.48-20.48-20.48-51.2 0-71.68 10.24-10.24 25.6-15.36 35.84-15.36s25.6 5.12 35.84 15.36l71.68 71.68c0 0 0 0 0 0 30.72 25.6 788.48 788.48 793.6 788.48zM624.64 704c56.32-10.24 107.52-56.32 117.76-117.76 0-10.24 5.12-25.6 0-35.84l-138.24-138.24c-10.24 0-25.6 0-35.84 0-56.32 10.24-97.28 51.2-112.64 107.52-5.12-20.48-10.24-40.96-10.24-61.44 0-56.32 20.48-112.64 51.2-153.6l-87.040-87.040c-61.44 81.92-97.28 189.44-97.28 307.2 0 81.92 15.36 158.72 51.2 230.4 35.84 25.6 158.72 102.4 348.16 102.4 122.88 0 215.040-30.72 276.48-61.44l-122.88-122.88c-40.96 30.72-97.28 51.2-153.6 51.2-35.84 0-71.68-5.12-102.4-20.48 5.12 0 10.24 0 15.36 0z" />
<glyph unicode="&#xe926;" glyph-name="alert-sl" horiz-adv-x="1147" d="M1131.52 110.080l-455.68 793.6c-46.080 76.8-158.72 76.8-204.8 0l-455.68-793.6c-46.080-76.8 10.24-174.080 102.4-174.080h911.36c92.16 0 148.48 97.28 102.4 174.080zM645.12 622.080l-25.6-348.16h-92.16l-25.6 348.16h143.36zM573.44 89.6c-40.96 0-71.68 30.72-71.68 66.56 0 40.96 30.72 66.56 71.68 66.56s71.68-30.72 71.68-66.56c0-35.84-30.72-66.56-71.68-66.56z" />
<glyph unicode="&#xe927;" glyph-name="vista-de-lista" horiz-adv-x="1485" d="M1433.6 396.8h-1382.4c-30.72 0-51.2 20.48-51.2 51.2s20.48 51.2 51.2 51.2h1382.4c30.72 0 51.2-20.48 51.2-51.2s-20.48-51.2-51.2-51.2zM1433.6 857.6h-1382.4c-30.72 0-51.2 20.48-51.2 51.2s20.48 51.2 51.2 51.2h1382.4c30.72 0 51.2-20.48 51.2-51.2s-20.48-51.2-51.2-51.2zM1433.6-64h-1382.4c-30.72 0-51.2 20.48-51.2 51.2s20.48 51.2 51.2 51.2h1382.4c30.72 0 51.2-20.48 51.2-51.2s-20.48-51.2-51.2-51.2z" />
<glyph unicode="&#xe928;" glyph-name="alert-ol" horiz-adv-x="1147" d="M506.88 176.64c0 35.84 25.6 61.44 66.56 61.44s66.56-25.6 66.56-61.44c0-35.84-25.6-61.44-66.56-61.44-40.96-5.12-66.56 25.6-66.56 61.44zM506.88 606.72h128l-20.48-317.44h-87.040l-20.48 317.44zM993.28-64h-839.68c-51.2 0-102.4 25.6-128 71.68s-25.6 102.4 0 148.48l419.84 732.16c25.6 46.080 76.8 71.68 128 71.68 0 0 0 0 0 0 51.2 0 102.4-25.6 128-71.68l419.84-727.040c25.6-46.080 25.6-102.4 0-148.48-25.6-51.2-71.68-76.8-128-76.8zM573.44 883.2c-25.6 0-46.080-15.36-61.44-35.84l-419.84-727.040c-10.24-20.48-10.24-46.080 0-71.68s35.84-35.84 61.44-35.84h839.68c25.6 0 46.080 15.36 61.44 35.84 10.24 20.48 10.24 46.080 0 71.68l-419.84 727.040c-15.36 20.48-35.84 35.84-61.44 35.84v0zM56.32 135.68v0 0z" />
<glyph unicode="&#xe929;" glyph-name="mover-vertical-sl" d="M409.6 857.6c0-56.554-45.846-102.4-102.4-102.4s-102.4 45.846-102.4 102.4c0 56.554 45.846 102.4 102.4 102.4s102.4-45.846 102.4-102.4zM409.6 38.4c0-56.554-45.846-102.4-102.4-102.4s-102.4 45.846-102.4 102.4c0 56.554 45.846 102.4 102.4 102.4s102.4-45.846 102.4-102.4zM409.6 448c0-56.554-45.846-102.4-102.4-102.4s-102.4 45.846-102.4 102.4c0 56.554 45.846 102.4 102.4 102.4s102.4-45.846 102.4-102.4zM819.2 857.6c0-56.554-45.846-102.4-102.4-102.4s-102.4 45.846-102.4 102.4c0 56.554 45.846 102.4 102.4 102.4s102.4-45.846 102.4-102.4zM819.2 38.4c0-56.554-45.846-102.4-102.4-102.4s-102.4 45.846-102.4 102.4c0 56.554 45.846 102.4 102.4 102.4s102.4-45.846 102.4-102.4zM819.2 448c0-56.554-45.846-102.4-102.4-102.4s-102.4 45.846-102.4 102.4c0 56.554 45.846 102.4 102.4 102.4s102.4-45.846 102.4-102.4z" />
<glyph unicode="&#xe92a;" glyph-name="productos" horiz-adv-x="1070" d="M512 232.96l-184.32-97.28c-35.84-20.48-81.92 10.24-76.8 56.32l35.84 204.8c5.12 15.36-5.12 35.84-15.36 46.080l-148.48 143.36c-30.72 30.72-10.24 81.92 30.72 87.040l204.8 30.72c15.36 0 30.72 15.36 40.96 30.72l92.16 184.32c20.48 40.96 76.8 40.96 92.16 0l92.16-184.32c5.12-15.36 20.48-30.72 35.84-30.72l204.8-30.72c40.96-5.12 61.44-56.32 30.72-87.040l-148.48-143.36c-10.24-10.24-15.36-30.72-15.36-46.080l35.84-204.8c5.12-40.96-35.84-76.8-76.8-56.32l-184.32 97.28c-15.36 5.12-30.72 5.12-46.080 0zM46.080 289.28c-20.48 0-40.96 15.36-46.080 30.72-10.24 25.6 5.12 51.2 30.72 61.44l61.44 20.48c25.6 10.24 51.2-5.12 61.44-30.72s-5.12-51.2-30.72-61.44l-61.44-15.36c-5.12-5.12-10.24-5.12-15.36-5.12zM266.24 816.64c-15.36 0-30.72 5.12-40.96 20.48l-30.72 46.080c-15.36 20.48-10.24 51.2 10.24 66.56s51.2 10.24 66.56-10.24l35.84-46.080c15.36-20.48 10.24-51.2-10.24-66.56-10.24-5.12-20.48-10.24-30.72-10.24zM803.84 816.64c-10.24 0-20.48 5.12-30.72 10.24-20.48 15.36-25.6 46.080-10.24 66.56l30.72 46.080c15.36 20.48 46.080 25.6 66.56 10.24s25.6-46.080 10.24-66.56l-30.72-46.080c-5.12-10.24-20.48-20.48-35.84-20.48zM1024 289.28c-5.12 0-10.24 0-15.36 0l-46.080 15.36c-25.6 10.24-40.96 35.84-30.72 61.44s35.84 40.96 61.44 30.72l46.080-15.36c25.6-10.24 40.96-35.84 30.72-61.44-5.12-15.36-25.6-30.72-46.080-30.72zM537.6-64c-25.6 0-46.080 20.48-46.080 46.080v61.44c0 25.6 20.48 46.080 46.080 46.080v0c25.6 0 46.080-20.48 46.080-46.080v-61.44c0-25.6-20.48-46.080-46.080-46.080v0z" />
<glyph unicode="&#xe92b;" glyph-name="web-sl" d="M512 960c-281.6 0-512-230.4-512-512s230.4-512 512-512 512 230.4 512 512-230.4 512-512 512zM675.84 755.2c-97.28-61.44-66.56-112.64-138.24-143.36-81.92-30.72-107.52-25.6-107.52-117.76s143.36-117.76 235.52-117.76c92.16 0-76.8-373.76-174.080-363.52-97.28 5.12-46.080 199.68-97.28 276.48s-317.44-46.080-317.44 168.96c0 230.4 194.56 424.96 435.2 424.96 138.24 0 250.88-71.68 250.88-92.16s-71.68-25.6-87.040-35.84z" />
<glyph unicode="&#xe92c;" glyph-name="web-ol" d="M977.92 232.96c0 0 0 5.12 5.12 5.12 30.72 61.44 46.080 133.12 46.080 209.92 0 128-46.080 245.76-128 337.92 0 0 0 0 0 0s-5.12 5.12-5.12 5.12c-10.24 15.36-25.6 25.6-35.84 35.84 0 0-5.12 5.12-5.12 5.12s0 0 0 0c-97.28 81.92-215.040 128-343.040 128-76.8 0-143.36-15.36-209.92-46.080 0 0-5.12 0-5.12-5.12-112.64-51.2-199.68-138.24-250.88-250.88 0 0 0-5.12-5.12-5.12-25.6-61.44-40.96-128-40.96-204.8 0-128 46.080-245.76 128-337.92 0 0 0 0 0 0s0 0 5.12-5.12c10.24-15.36 25.6-25.6 35.84-35.84 0 0 5.12-5.12 5.12-5.12s0 0 0 0c92.16-81.92 209.92-128 337.92-128 76.8 0 143.36 15.36 209.92 46.080 0 0 5.12 0 5.12 5.12 107.52 46.080 199.68 138.24 250.88 245.76zM716.8 64l-138.24 138.24c66.56 51.2 128 112.64 179.2 179.2l138.24-138.24c-40.96-76.8-102.4-138.24-179.2-179.2zM215.040 130.56c0 0-5.12 5.12 0 0-10.24 10.24-10.24 10.24-15.36 15.36 0 0 0 0 0 0 0 10.24 5.12 25.6 5.12 35.84 10.24 71.68 40.96 143.36 76.8 204.8l179.2-179.2c-66.56-35.84-138.24-66.56-204.8-76.8-20.48 5.12-30.72 5.12-40.96 0zM322.56 458.24c51.2 66.56 112.64 128 179.2 179.2l199.68-199.68c-51.2-66.56-112.64-128-179.2-179.2l-199.68 199.68zM808.96 765.44c5.12-5.12 5.12-5.12 0 0 10.24-10.24 10.24-10.24 15.36-15.36 0 0 0 0 0 0 0-10.24-5.12-25.6-5.12-35.84-10.24-71.68-40.96-143.36-76.8-204.8l-179.2 179.2c66.56 35.84 138.24 66.56 204.8 76.8 20.48-5.12 30.72-5.12 40.96 0zM926.72 320l-128 128c40.96 66.56 71.68 138.24 92.16 215.040 35.84-61.44 56.32-138.24 56.32-215.040 0-46.080-5.12-87.040-20.48-128zM727.040 826.88c-76.8-20.48-148.48-51.2-215.040-92.16l-128 128c40.96 15.36 81.92 20.48 128 20.48 76.8 0 153.6-20.48 215.040-56.32zM307.2 832l138.24-138.24c-66.56-51.2-128-112.64-179.2-179.2l-138.24 138.24c40.96 76.8 102.4 138.24 179.2 179.2zM97.28 576l128-128c-40.96-66.56-71.68-138.24-92.16-215.040-35.84 61.44-56.32 138.24-56.32 215.040 0 46.080 5.12 87.040 20.48 128zM296.96 69.12c71.68 15.36 143.36 46.080 215.040 92.16l128-128c-40.96-10.24-81.92-20.48-128-20.48-76.8 0-148.48 20.48-215.040 56.32z" />
<glyph unicode="&#xe92d;" glyph-name="whatsapp" d="M445.44 954.88c-220.16-25.6-404.48-204.8-440.32-424.96-20.48-143.36 15.36-276.48 92.16-384l-40.96-117.76c-10.24-30.72 15.36-56.32 46.080-46.080l128 40.96c97.28-61.44 215.040-97.28 343.040-81.92 230.4 25.6 419.84 209.92 450.56 440.32 35.84 332.8-245.76 614.4-578.56 573.44zM778.24 263.68c-15.36-40.96-76.8-71.68-102.4-71.68-5.12 0-5.12 0-10.24 0s-10.24-5.12-20.48-5.12c-15.36 0-46.080 5.12-133.12 35.84-81.92 30.72-158.72 102.4-225.28 194.56v5.12c-15.36 20.48-56.32 81.92-56.32 143.36 0 66.56 30.72 102.4 46.080 117.76 25.6 15.36 51.2 20.48 56.32 20.48 0 0 15.36 0 25.6 0 20.48 0 35.84-10.24 46.080-35.84l15.36-35.84c10.24-25.6 20.48-51.2 25.6-56.32 5.12-15.36 5.12-25.6 0-40.96v-5.12c-10.24 0-10.24-5.12-20.48-15.36l-5.12-5.12c-5.12-10.24-10.24-15.36-15.36-20.48 0 0-5.12-5.12-5.12-5.12 10.24-15.36 35.84-51.2 66.56-81.92 35.84-35.84 71.68-46.080 87.040-56.32 5.12 0 5.12-5.12 10.24-5.12s5.12 0 5.12 0c10.24 10.24 30.72 35.84 35.84 46.080 10.24 10.24 20.48 20.48 30.72 20.48 5.12 0 15.36 0 20.48-5.12 15.36-5.12 87.040-40.96 87.040-40.96l5.12-5.12c10.24-5.12 20.48-10.24 25.6-20.48 20.48-10.24 15.36-40.96 5.12-71.68z" />
<glyph unicode="&#xe92e;" glyph-name="acreedores" horiz-adv-x="1331" d="M322.56 960h-204.8c-66.56 0-117.76-51.2-117.76-117.76v-133.12h322.56v250.88zM399.36 591.36l97.28 35.84c5.12 0 10.24 0 15.36 0s10.24 0 15.36 0l97.28-35.84v368.64h-225.28v-368.64zM1187.84 586.24h-56.32c0 35.84-15.36 66.56-40.96 92.16-5.12 15.36-15.36 20.48-25.6 25.6 0 0-5.12 0-5.12 5.12-10.24 5.12-20.48 10.24-35.84 10.24v122.88c0 66.56-51.2 117.76-112.64 117.76h-209.92v-245.76h240.64c-20.48-10.24-35.84-20.48-46.080-30.72l-46.080-46.080h-148.48v-97.28c0-10.24-5.12-25.6-15.36-30.72s-15.36-10.24-25.6-10.24c-5.12 0-10.24 0-15.36 0l-133.12 51.2-138.24-51.2c-10.24 0-25.6 0-35.84 5.12-10.24 10.24-15.36 20.48-15.36 35.84v97.28h-322.56v-583.68c0-66.56 51.2-117.76 117.76-117.76h793.6c61.44 0 117.76 51.2 117.76 117.76v122.88c0 0 0 0 0 0 10.24 0 20.48 5.12 35.84 10.24 0 0 5.12 0 5.12 5.12 10.24 5.12 20.48 15.36 30.72 20.48 25.6 25.6 40.96 61.44 40.96 92.16h56.32c76.8 0 138.24 61.44 138.24 138.24-5.12 81.92-71.68 143.36-148.48 143.36zM343.040 130.56h-122.88c-20.48 0-40.96 15.36-40.96 40.96s15.36 40.96 40.96 40.96h128c20.48 0 40.96-15.36 40.96-40.96s-20.48-40.96-46.080-40.96zM471.040 273.92h-250.88c-20.48 0-40.96 15.36-40.96 40.96s15.36 40.96 40.96 40.96h250.88c20.48 0 40.96-15.36 40.96-40.96s-20.48-40.96-40.96-40.96zM1187.84 407.040h-235.52l71.68-71.68c15.36-15.36 15.36-40.96 0-56.32-5.12-5.12-15.36-10.24-25.6-10.24s-20.48 5.12-25.6 10.24l-133.12 133.12c-5.12 5.12-5.12 10.24-10.24 10.24-5.12 10.24-5.12 20.48 0 30.72 0 5.12 5.12 10.24 10.24 10.24l133.12 133.12c15.36 15.36 40.96 15.36 56.32 0s15.36-40.96 0-56.32l-71.68-71.68h235.52c20.48 0 40.96-15.36 40.96-40.96s-25.6-20.48-46.080-20.48z" />
<glyph unicode="&#xe92f;" glyph-name="agregar-foto-sl" horiz-adv-x="1423" d="M967.68 657.92h-153.6l-61.44 122.88c-20.48 40.96-61.44 66.56-107.52 66.56h-179.2c-46.080 0-87.040-25.6-107.52-66.56l-56.32-122.88h-153.6c-81.92 0-148.48-66.56-148.48-148.48v-430.080c0-76.8 66.56-143.36 148.48-143.36h824.32c81.92 0 148.48 66.56 148.48 148.48v424.96c-5.12 81.92-71.68 148.48-153.6 148.48zM568.32 33.28c-148.48 0-266.24 117.76-266.24 266.24s117.76 266.24 266.24 266.24 266.24-117.76 266.24-266.24c0-148.48-117.76-266.24-266.24-266.24zM931.84 417.28c-30.72 0-61.44 25.6-61.44 61.44s25.6 61.44 61.44 61.44 61.44-25.6 61.44-61.44-25.6-61.44-61.44-61.44zM568.32 483.84c-102.4 0-189.44-87.040-189.44-189.44s87.040-189.44 189.44-189.44 189.44 87.040 189.44 189.44-87.040 189.44-189.44 189.44zM568.32 314.88c-10.24 0-15.36-5.12-15.36-15.36 0-20.48-15.36-40.96-40.96-40.96s-35.84 15.36-35.84 35.84c0 51.2 40.96 92.16 92.16 92.16 20.48 0 40.96-15.36 40.96-40.96s-20.48-30.72-40.96-30.72zM1382.4 801.28h-117.76v117.76c0 25.6-15.36 40.96-35.84 40.96s-40.96-15.36-40.96-40.96v-117.76h-117.76c-20.48 0-40.96-15.36-40.96-40.96s15.36-40.96 40.96-40.96h117.76v-117.76c0-20.48 15.36-40.96 40.96-40.96s40.96 15.36 40.96 40.96v122.88h112.64c20.48 0 40.96 15.36 40.96 40.96s-15.36 35.84-40.96 35.84z" />
<glyph unicode="&#xe930;" glyph-name="zoom" d="M1008.64 2.56l-286.72 291.84c0 0 0 0 0 0 61.44 71.68 97.28 163.84 97.28 261.12 0 220.16-184.32 404.48-409.6 404.48s-404.48-184.32-404.48-404.48 184.32-404.48 404.48-404.48c97.28 0 184.32 35.84 256 92.16 0 0 0 0 0 0l286.72-291.84c5.12-5.12 15.36-10.24 25.6-10.24s20.48 5.12 25.6 10.24c20.48 10.24 20.48 35.84 5.12 51.2zM409.6 222.72c-179.2 0-327.68 148.48-327.68 327.68s148.48 332.8 327.68 332.8 327.68-148.48 327.68-327.68-143.36-332.8-327.68-332.8zM552.96 591.36h-102.4v107.52c0 20.48-15.36 40.96-40.96 40.96-20.48 0-35.84-15.36-35.84-40.96v-107.52h-107.52c-20.48 0-40.96-15.36-40.96-40.96s15.36-40.96 40.96-40.96h107.52v-107.52c0-20.48 15.36-40.96 35.84-40.96s40.96 15.36 40.96 40.96v112.64h107.52c20.48 0 40.96 15.36 40.96 40.96s-20.48 35.84-46.080 35.84z" />
<glyph unicode="&#xe931;" glyph-name="atributos" d="M901.12 381.44v537.6c0 25.6-25.6 40.96-56.32 40.96h-732.16c-30.72 0-56.32-20.48-56.32-40.96v-865.28c0-25.6 25.6-40.96 56.32-40.96h399.36c51.2-66.56 128-112.64 220.16-112.64 148.48 0 271.36 122.88 271.36 271.36 0 87.040-40.96 158.72-102.4 209.92zM307.2 734.72h343.040c30.72 0 51.2-20.48 51.2-51.2s-20.48-51.2-51.2-51.2h-343.040c-30.72 0-51.2 20.48-51.2 51.2s20.48 51.2 51.2 51.2zM307.2 540.16h343.040c30.72 0 51.2-20.48 51.2-51.2s-20.48-51.2-51.2-51.2h-343.040c-30.72 0-51.2 20.48-51.2 51.2s20.48 51.2 51.2 51.2zM256 294.4c0 30.72 20.48 51.2 51.2 51.2h220.16c-25.6-30.72-46.080-66.56-56.32-102.4h-163.84c-30.72 0-51.2 20.48-51.2 51.2zM732.16-28.16c-107.52 0-194.56 87.040-194.56 194.56s87.040 194.56 194.56 194.56c107.52 0 194.56-87.040 194.56-194.56s-87.040-194.56-194.56-194.56zM701.44 69.12c-15.36 0-25.6 5.12-35.84 15.36l-40.96 40.96c-20.48 20.48-20.48 51.2 0 71.68s51.2 20.48 71.68 0l5.12-5.12 61.44 61.44c20.48 20.48 51.2 20.48 71.68 0s20.48-51.2 0-71.68l-97.28-97.28c-5.12-10.24-20.48-15.36-35.84-15.36z" />
<glyph unicode="&#xe932;" glyph-name="cerrar-ol" d="M512 960c-281.6 0-512-230.4-512-512s230.4-512 512-512 512 230.4 512 512-230.4 512-512 512zM512 12.8c-240.64 0-435.2 194.56-435.2 435.2s194.56 435.2 435.2 435.2c240.64 0 435.2-194.56 435.2-435.2s-194.56-435.2-435.2-435.2zM742.4 678.4c-15.36 15.36-40.96 15.36-56.32 0l-174.080-174.080-179.2 174.080c-15.36 15.36-40.96 15.36-56.32 0s-15.36-40.96 0-56.32l179.2-174.080-179.2-179.2c-15.36-15.36-15.36-40.96 0-56.32 5.12-5.12 15.36-10.24 25.6-10.24s20.48 5.12 25.6 10.24l179.2 179.2 179.2-179.2c5.12-5.12 15.36-10.24 25.6-10.24s20.48 5.12 25.6 10.24c15.36 15.36 15.36 40.96 0 56.32l-168.96 179.2 179.2 179.2c10.24 15.36 10.24 35.84-5.12 51.2z" />
<glyph unicode="&#xe933;" glyph-name="chat-sl" horiz-adv-x="1183" d="M593.92 954.88c-327.68 0-588.8-215.040-588.8-486.4 0-128 56.32-240.64 153.6-327.68v0l-20.48-143.36c-5.12-40.96 35.84-71.68 71.68-56.32l158.72 71.68c66.56-25.6 143.36-35.84 225.28-35.84 322.56 0 583.68 220.16 583.68 486.4 0 276.48-261.12 491.52-583.68 491.52zM773.12 299.52h-358.4c-30.72 0-51.2 20.48-51.2 51.2s20.48 51.2 51.2 51.2h358.4c30.72 0 51.2-20.48 51.2-51.2s-25.6-51.2-51.2-51.2zM773.12 555.52h-358.4c-30.72 0-51.2 20.48-51.2 51.2s20.48 51.2 51.2 51.2h358.4c30.72 0 51.2-20.48 51.2-51.2s-25.6-51.2-51.2-51.2z" />
<glyph unicode="&#xe934;" glyph-name="rocket-sl" d="M471.040 780.8c-81.92-87.040-174.080-194.56-230.4-302.080 0 0 0 0 0 0-40.96 40.96-107.52 40.96-148.48 0s-92.16-235.52-92.16-235.52 112.64 25.6 184.32 56.32c0-10.24 0-25.6 0-35.84-10.24-5.12-15.36-10.24-25.6-20.48-40.96-40.96-92.16-240.64-92.16-240.64s199.68 51.2 240.64 92.16c5.12 5.12 15.36 15.36 20.48 25.6 10.24 0 25.6 0 35.84 0-30.72-71.68-56.32-184.32-56.32-184.32s194.56 46.080 235.52 87.040 40.96 107.52 0 148.48c0 0 0 0 0 0 107.52 56.32 215.040 148.48 302.080 230.4-76.8 35.84-153.6 87.040-220.16 158.72-66.56 66.56-117.76 143.36-153.6 220.16zM593.92 386.56c-40.96-40.96-102.4-40.96-138.24 0-40.96 40.96-40.96 102.4 0 138.24 40.96 40.96 102.4 40.96 138.24 0 35.84-35.84 35.84-97.28 0-138.24zM921.6 483.84c158.72 174.080 81.92 455.68 81.92 455.68s-286.72 76.8-455.68-81.92c30.72-76.8 81.92-158.72 153.6-225.28 66.56-66.56 143.36-117.76 220.16-148.48z" />
<glyph unicode="&#xe935;" glyph-name="empleados-secciones" d="M768 263.68c0 5.12 0 5.12 0 5.12-5.12 0-10.24 0-15.36 0h-71.68v76.8c46.080 40.96 76.8 102.4 76.8 174.080h10.24c30.72 0 51.2 25.6 51.2 51.2v20.48c0 30.72-25.6 51.2-51.2 51.2h-10.24c0 0 0 5.12 0 5.12s0 5.12 0 5.12v133.12c0 40.96-25.6 76.8-66.56 92.16-15.36 46.080-56.32 81.92-107.52 81.92h-102.4c-117.76 0-215.040-97.28-215.040-215.040v-87.040c0 0 0-5.12 0-5.12s0-5.12 0-5.12v0h-10.24c-30.72 0-51.2-25.6-51.2-51.2v-15.36c0-30.72 25.6-51.2 51.2-51.2h10.24c0-71.68 30.72-133.12 81.92-174.080v-71.68h-76.8c-5.12 0-10.24 0-15.36 0 0 0 0-5.12 0-5.12v-343.040h512v327.68zM599.040 243.2l-87.040-66.56-81.92 66.56v56.32c25.6-5.12 46.080-15.36 71.68-15.36h20.48c25.6 0 56.32 5.12 76.8 15.36v-56.32zM675.84 524.8c0-87.040-71.68-153.6-153.6-153.6h-20.48c-87.040 0-153.6 71.68-153.6 153.6v153.6c0 30.72 30.72 51.2 61.44 40.96l61.44-25.6c25.6-10.24 56.32-10.24 81.92 0l61.44 25.6c30.72 10.24 61.44-10.24 61.44-40.96v-56.32h5.12v-97.28zM174.080 248.32c-51.2-30.72-87.040-92.16-87.040-158.72v-153.6h87.040v312.32zM936.96 89.6c0 66.56-35.84 122.88-87.040 158.72v-312.32h87.040v153.6z" />
<glyph unicode="&#xe936;" glyph-name="facebook" d="M358.4-64v389.12h-143.36v245.76h143.36v117.76c0 148.48 122.88 271.36 271.36 271.36h174.080v-250.88h-174.080c-10.24 0-20.48-10.24-20.48-20.48v-117.76h199.68l-61.44-250.88h-138.24v-384h-250.88z" />
<glyph unicode="&#xe937;" glyph-name="foto-h" horiz-adv-x="1464" d="M1382.4 960h-1295.36c-51.2 0-87.040-35.84-87.040-87.040v-855.040c0-46.080 35.84-81.92 87.040-81.92h1295.36c46.080 0 87.040 35.84 87.040 87.040v849.92c-5.12 51.2-40.96 87.040-87.040 87.040zM977.92 765.44c61.44 0 107.52-51.2 107.52-107.52s-51.2-107.52-107.52-107.52c-61.44 0-107.52 51.2-107.52 107.52s51.2 107.52 107.52 107.52zM1392.64 48.64c0-20.48-15.36-35.84-35.84-35.84h-1244.16c-20.48 0-35.84 15.36-35.84 35.84v194.56l343.040 302.080c51.2 46.080 133.12 46.080 184.32 0l122.88-107.52c0 0 0 0 0 0l245.76-220.16 138.24 138.24c25.6 25.6 61.44 40.96 102.4 40.96 35.84 0 71.68-15.36 97.28-46.080l81.92-92.16v-209.92z" />
<glyph unicode="&#xe938;" glyph-name="buscar-opciones-sl" horiz-adv-x="1428" d="M1315.84 637.44h-256c-61.44 0-117.76-51.2-117.76-117.76v-256c0-61.44 51.2-117.76 117.76-117.76h256c61.44 0 117.76 51.2 117.76 117.76v256c-5.12 66.56-56.32 117.76-117.76 117.76zM1377.28 263.68c0-35.84-30.72-66.56-66.56-66.56h-256c-35.84 0-66.56 30.72-66.56 66.56v256c0 35.84 30.72 66.56 66.56 66.56h256c35.84 0 66.56-30.72 66.56-66.56v-256zM1305.6 432.64h-81.92v81.92c0 20.48-15.36 40.96-40.96 40.96s-40.96-15.36-40.96-40.96v-81.92h-81.92c-20.48 0-40.96-15.36-40.96-40.96s15.36-40.96 40.96-40.96h81.92v-81.92c0-20.48 15.36-40.96 40.96-40.96s40.96 15.36 40.96 40.96v81.92h81.92c20.48 0 40.96 15.36 40.96 40.96s-20.48 40.96-40.96 40.96zM773.12 238.080c66.56 76.8 107.52 174.080 107.52 286.72 0 240.64-194.56 440.32-440.32 440.32s-440.32-199.68-440.32-445.44 194.56-440.32 440.32-440.32c107.52 0 204.8 35.84 281.6 102.4l230.4-235.52c5.12-5.12 15.36-10.24 25.6-10.24s20.48 5.12 25.6 10.24c15.36 15.36 15.36 40.96 0 56.32l-230.4 235.52zM440.32 181.76c-189.44 0-337.92 153.6-337.92 337.92 0 189.44 153.6 337.92 337.92 337.92 189.44 0 337.92-153.6 337.92-337.92s-153.6-337.92-337.92-337.92zM701.44 519.68c0-144.213-116.907-261.12-261.12-261.12s-261.12 116.907-261.12 261.12c0 144.213 116.907 261.12 261.12 261.12s261.12-116.907 261.12-261.12z" />
<glyph unicode="&#xe939;" glyph-name="foto-sl" horiz-adv-x="1060" d="M947.2 960h-834.56c-61.44 0-112.64-51.2-112.64-117.76v-793.6c0-61.44 51.2-112.64 112.64-112.64h829.44c61.44 0 117.76 51.2 117.76 117.76v788.48c0 66.56-51.2 117.76-112.64 117.76zM747.52 729.6c51.2 0 87.040-40.96 87.040-87.040 0-51.2-40.96-87.040-87.040-87.040s-87.040 40.96-87.040 87.040c-5.12 46.080 35.84 87.040 87.040 87.040zM988.16 48.64c0-20.48-15.36-35.84-35.84-35.84h-839.68c-20.48 0-35.84 15.36-35.84 35.84v209.92c0 10.24 5.12 20.48 15.36 30.72l225.28 199.68c30.72 30.72 81.92 30.72 112.64 0l276.48-245.76 107.52 107.52c35.84 35.84 87.040 35.84 122.88 0l46.080-46.080c5.12-5.12 10.24-15.36 10.24-25.6v-230.4z" />
<glyph unicode="&#xe93a;" glyph-name="informes" d="M936.96 744.96v87.040c0 71.68-56.32 128-128 128h-97.28c-71.68 0-128-56.32-128-128 0-15.36 5.12-30.72 10.24-46.080l-30.72-35.84h-445.44c-66.56 0-117.76-51.2-117.76-117.76v-583.68c0-61.44 51.2-112.64 117.76-112.64h51.2v199.68h102.4v-199.68h97.28v302.080h102.4v-302.080h97.28v261.12h102.4v-261.12h97.28v501.76h102.4v-501.76h51.2c61.44 0 117.76 51.2 117.76 117.76v578.56c-15.36 56.32-51.2 97.28-102.4 112.64zM860.16 729.6c0-30.72-20.48-51.2-51.2-51.2-20.48 0-35.84 10.24-46.080 25.6l-286.72-312.32c-15.36-20.48-46.080-20.48-66.56-10.24l-61.44 40.96-92.16-122.88c-10.24-15.36-25.6-20.48-40.96-20.48-10.24 0-20.48 5.12-30.72 10.24-20.48 15.36-25.6 51.2-10.24 71.68l128 163.84c15.36 20.48 46.080 25.6 71.68 10.24l61.44-40.96 261.12 286.72c-20.48 5.12-35.84 25.6-35.84 46.080 0 30.72 20.48 51.2 51.2 51.2h97.28c30.72 0 51.2-20.48 51.2-51.2v-97.28z" />
<glyph unicode="&#xe93b;" glyph-name="inicio-apps" d="M911.36 499.2h-230.4c-66.56 0-117.76 51.2-117.76 112.64v230.4c0 66.56 51.2 117.76 117.76 117.76h230.4c61.44 0 112.64-51.2 112.64-117.76v-230.4c0-61.44-51.2-112.64-112.64-112.64zM911.36-64h-230.4c-66.56 0-117.76 51.2-117.76 112.64v230.4c0 61.44 51.2 117.76 117.76 117.76h230.4c61.44 0 117.76-51.2 117.76-117.76v-230.4c-5.12-61.44-56.32-112.64-117.76-112.64zM348.16 499.2h-230.4c-66.56 0-117.76 51.2-117.76 112.64v230.4c0 66.56 51.2 117.76 117.76 117.76h230.4c61.44 0 112.64-51.2 112.64-117.76v-230.4c0-61.44-51.2-112.64-112.64-112.64zM348.16-64h-230.4c-66.56 0-117.76 51.2-117.76 112.64v230.4c0 66.56 51.2 117.76 117.76 117.76h230.4c61.44 0 112.64-51.2 112.64-117.76v-230.4c0-61.44-51.2-112.64-112.64-112.64z" />
<glyph unicode="&#xe93c;" glyph-name="instagram" d="M768 960h-512c-143.36 0-256-112.64-256-256v-512c0-143.36 112.64-256 256-256h512c143.36 0 256 112.64 256 256v512c0 143.36-112.64 256-256 256zM721.92 299.52c-40.96-56.32-102.4-92.16-168.96-102.4-10.24 0-25.6-5.12-35.84-5.12-122.88 0-235.52 92.16-250.88 220.16-15.36 66.56 0 133.12 40.96 189.44s102.4 92.16 168.96 102.4c25.6 5.12 51.2 5.12 76.8 0 112.64-15.36 199.68-102.4 215.040-215.040 10.24-66.56-5.12-138.24-46.080-189.44zM783.36 657.92c-35.84 0-61.44 30.72-61.44 61.44s30.72 61.44 61.44 61.44c35.84 0 61.44-30.72 61.44-61.44s-25.6-61.44-61.44-61.44zM665.6 473.6c-10.24 66.56-61.44 117.76-128 128-5.12 0-15.36 0-20.48 0s-20.48 0-25.6 0c-40.96-5.12-76.8-25.6-102.4-61.44-20.48-30.72-30.72-71.68-25.6-112.64 10.24-81.92 92.16-143.36 174.080-128 40.96 5.12 76.8 25.6 102.4 61.44s30.72 71.68 25.6 112.64c0 0 0 0 0 0z" />
<glyph unicode="&#xe93d;" glyph-name="mano-de-obra" horiz-adv-x="1300" d="M353.28 181.76c-46.080-15.36-92.16 15.36-107.52 61.44s15.36 97.28 61.44 107.52c35.84 10.24 71.68-5.12 92.16-30.72 0 15.36 0 25.6 0 40.96 0 46.080 5.12 87.040 20.48 128-25.6 10.24-51.2 15.36-81.92 15.36l-25.6 92.16-133.12-35.84 25.6-87.040c-30.72-20.48-61.44-46.080-81.92-81.92l-92.16 25.6-30.72-133.12 92.16-25.6c0-20.48 5.12-35.84 10.24-56.32s15.36-35.84 20.48-51.2l-66.56-66.56 97.28-97.28 66.56 66.56c35.84-15.36 71.68-25.6 112.64-25.6l20.48-92.16 133.12 35.84-25.6 92.16c10.24 5.12 20.48 15.36 30.72 20.48-30.72 46.080-56.32 97.28-71.68 153.6-15.36-25.6-35.84-51.2-66.56-56.32zM517.12 714.24c-10.24 30.72 10.24 66.56 40.96 76.8 20.48 5.12 46.080 0 61.44-15.36 35.84 25.6 76.8 40.96 117.76 56.32l30.72 25.6-66.56 66.56-46.080-46.080c-25.6 10.24-51.2 20.48-76.8 20.48l-15.36 61.44-92.16-25.6 15.36-61.44c-20.48-15.36-40.96-35.84-56.32-56.32l-61.44 15.36-20.48-92.16 61.44-15.36c0-15.36 0-25.6 5.12-40.96s10.24-25.6 15.36-35.84l-46.080-46.080 51.2-51.2c20.48 51.2 51.2 102.4 92.16 143.36-5.12 5.12-10.24 10.24-10.24 20.48zM885.76 780.8c-230.4 0-414.72-184.32-414.72-414.72s184.32-414.72 414.72-414.72 414.72 184.32 414.72 414.72-184.32 414.72-414.72 414.72zM926.72 120.32v-20.48c0-15.36-15.36-30.72-30.72-30.72h-25.6c-15.36 0-30.72 15.36-30.72 30.72v20.48c-61.44 10.24-112.64 40.96-133.12 92.16-15.36 30.72 10.24 66.56 46.080 66.56h10.24c20.48 0 35.84-10.24 46.080-30.72 15.36-25.6 40.96-35.84 71.68-35.84 40.96 0 76.8 20.48 76.8 51.2 0 35.84-40.96 46.080-97.28 61.44-71.68 15.36-163.84 40.96-163.84 143.36 0 76.8 51.2 128 133.12 138.24v20.48c0 15.36 15.36 30.72 30.72 30.72h25.6c15.36 0 30.72-15.36 30.72-30.72v-15.36c56.32-10.24 97.28-35.84 117.76-81.92 15.36-30.72-10.24-71.68-46.080-71.68h-5.12c-20.48 0-40.96 10.24-46.080 25.6-10.24 20.48-35.84 30.72-66.56 30.72-35.84 0-66.56-15.36-66.56-40.96 0-35.84 40.96-46.080 92.16-56.32 71.68-20.48 163.84-40.96 163.84-148.48 5.12-87.040-56.32-133.12-133.12-148.48z" />
<glyph unicode="&#xe93e;" glyph-name="minimos-y-maximos" horiz-adv-x="1459" d="M1034.24 785.92c-66.56 0-133.12-15.36-189.44-46.080v168.96c0 30.72-20.48 51.2-51.2 51.2h-742.4c-30.72 0-51.2-20.48-51.2-51.2v-921.6c0-30.72 20.48-51.2 51.2-51.2h742.4c25.6 0 46.080 20.48 51.2 46.080 56.32-30.72 122.88-46.080 189.44-46.080 235.52 0 424.96 189.44 424.96 424.96s-189.44 424.96-424.96 424.96zM624.64 468.48h-30.72v128h87.040c-25.6-40.96-46.080-81.92-56.32-128zM117.76 780.8c0 30.72 20.48 51.2 51.2 51.2h506.88c30.72 0 51.2-20.48 51.2-51.2v-66.56c0-30.72-20.48-51.2-51.2-51.2h-506.88c-30.72 0-51.2 20.48-51.2 51.2v66.56zM250.88 74.24h-117.76v128h117.76v-128zM250.88 273.92h-117.76v128h117.76v-128zM250.88 468.48h-117.76v128h117.76v-128zM481.28 74.24h-117.76v128h117.76v-128zM481.28 273.92h-117.76v128h117.76v-128zM481.28 468.48h-117.76v128h117.76v-128zM593.92 64v343.040h20.48c0-15.36 0-30.72 0-46.080 0-107.52 40.96-204.8 102.4-276.48v-20.48h-122.88zM1075.2 115.2v-25.6c0-15.36-15.36-30.72-30.72-30.72h-25.6c-15.36 0-30.72 15.36-30.72 30.72v20.48c-66.56 10.24-112.64 40.96-138.24 97.28-15.36 30.72 10.24 66.56 46.080 66.56h10.24c20.48 0 35.84-10.24 46.080-30.72 15.36-25.6 40.96-35.84 76.8-35.84 40.96 0 76.8 20.48 76.8 56.32s-46.080 46.080-97.28 61.44c-71.68 20.48-163.84 40.96-163.84 148.48 0 81.92 51.2 128 138.24 143.36v15.36c0 15.36 15.36 30.72 30.72 30.72h25.6c15.36 0 30.72-15.36 30.72-30.72v-20.48c56.32-10.24 102.4-35.84 117.76-81.92 15.36-35.84-10.24-71.68-46.080-71.68h-5.12c-20.48 0-40.96 10.24-46.080 25.6-10.24 20.48-40.96 35.84-66.56 35.84-35.84 0-71.68-15.36-71.68-46.080 0-35.84 40.96-46.080 92.16-56.32 76.8-20.48 168.96-40.96 168.96-153.6 5.12-87.040-56.32-138.24-138.24-148.48z" />
<glyph unicode="&#xe93f;" glyph-name="bases-del-costo" horiz-adv-x="1331" d="M972.8 294.4c0 5.12 0 10.24 0 15.36 0-5.12 0-10.24 0-15.36zM839.68 483.84c5.12-5.12 10.24-5.12 15.36-10.24-5.12 5.12-10.24 10.24-15.36 10.24zM819.2 519.68v0c0 0 0-5.12 0 0 0-5.12 0 0 0 0zM819.2 514.56c0-5.12 0-10.24 5.12-15.36 0 5.12-5.12 10.24-5.12 15.36zM860.16 473.6c5.12-5.12 15.36-5.12 20.48-5.12-10.24 0-15.36 5.12-20.48 5.12zM1024 417.28c5.12-5.12 10.24-10.24 15.36-15.36 0 5.12-5.12 10.24-15.36 15.36zM890.88 560.64c5.12 0 15.36 0 20.48 0-5.12-5.12-10.24 0-20.48 0v0zM962.56 284.16c5.12 5.12 5.12 5.12 5.12 10.24 0-5.12 0-10.24-5.12-10.24zM1003.52 427.52c5.12 0 10.24-5.12 15.36-5.12-5.12 0-10.24 5.12-15.36 5.12zM1034.24 596.48c5.12-10.24 10.24-15.36 15.36-25.6-5.12 10.24-10.24 15.36-15.36 25.6zM732.16 448c0 5.12-5.12 5.12-5.12 10.24 0 0 0-5.12 5.12-10.24zM865.28 693.76v0 0zM855.040 683.52c0 0 0 0 0 0s0 0 0 0zM721.92 478.72c-5.12 10.24-5.12 20.48-5.12 30.72 0-10.24 0-20.48 5.12-30.72zM716.8 524.8c0-5.12 0-10.24 0-15.36 0 5.12 0 10.24 0 15.36v0zM931.84 550.4c-5.12 5.12-10.24 5.12-15.36 5.12 0 0 10.24-5.12 15.36-5.12zM762.88 412.16v0 0zM1018.88 611.84c5.12-5.12 5.12-5.12 10.24-10.24-5.12 5.12-10.24 10.24-10.24 10.24zM865.28 371.2c5.12 0 5.12 0 10.24 0 0 0-5.12 0-10.24 0v0zM1049.6 396.8c5.12-5.12 10.24-10.24 15.36-15.36-5.12 5.12-10.24 10.24-15.36 15.36zM747.52 427.52c-5.12 0-5.12 5.12 0 0-5.12 5.12-5.12 0 0 0zM839.68 273.92c0 0-5.12 5.12-5.12 5.12 0-5.12 0-5.12 5.12-5.12zM742.4 222.72c-5.12 10.24-15.36 20.48-20.48 30.72 5.12-10.24 10.24-20.48 20.48-30.72zM1080.32 309.76c0 10.24 0 20.48-5.12 30.72 0-5.12 5.12-20.48 5.12-30.72zM865.28 258.56c5.12 0 5.12 0 10.24-5.12-5.12 5.12-5.12 5.12-10.24 5.12zM849.92 268.8c5.12 0 5.12-5.12 10.24-5.12-5.12 0-10.24 0-10.24 5.12zM834.56 483.84c-5.12 5.12-10.24 5.12-10.24 10.24 5.12 0 10.24-5.12 10.24-10.24zM931.84 545.28c5.12 0 5.12-5.12 10.24-5.12 0 5.12-5.12 5.12-10.24 5.12zM1064.96 376.32c5.12-5.12 5.12-15.36 10.24-25.6-5.12 10.24-5.12 15.36-10.24 25.6zM896 821.76c-20.48 0-35.84 0-56.32-5.12l-138.24 122.88c-10.24 10.24-25.6 10.24-40.96 5.12l-619.52-245.76c-15.36-5.12-20.48-15.36-25.6-30.72 0-15.36 5.12-25.6 10.24-35.84l122.88-107.52-107.52-40.96c-15.36-5.12-20.48-15.36-25.6-30.72 0-15.36 5.12-25.6 10.24-35.84l122.88-107.52-112.64-46.080c-10.24-5.12-20.48-15.36-25.6-30.72 0-15.36 5.12-25.6 10.24-35.84l286.72-245.76c5.12-5.12 15.36-10.24 25.6-10.24 5.12 0 10.24 0 15.36 5.12l296.96 117.76c71.68-51.2 153.6-81.92 245.76-81.92 230.4 0 414.72 184.32 414.72 414.72 10.24 235.52-179.2 424.96-409.6 424.96zM128 432.64l87.040 35.84 97.28-81.92c5.12-5.12 15.36-10.24 25.6-10.24 5.12 0 10.24 0 15.36 5.12l128 51.2c0-10.24 0-20.48 0-25.6 0-35.84 5.12-66.56 10.24-97.28l-143.36-66.56-51.2 40.96-66.56 61.44-102.4 87.040zM348.16 33.28l-220.16 189.44 87.040 35.84 97.28-81.92c5.12-5.12 15.36-10.24 25.6-10.24 5.12 0 10.24 0 15.36 5.12l163.84 66.56c15.36-35.84 40.96-71.68 66.56-102.4l-235.52-102.4zM496.64 519.68l-153.6-61.44-215.040 189.44 542.72 215.040 81.92-71.68c-122.88-46.080-220.16-143.36-256-271.36zM936.96 161.28v-20.48c0-15.36-15.36-30.72-30.72-30.72h-25.6c-15.36 0-30.72 15.36-30.72 30.72v20.48c-51.2 5.12-87.040 30.72-112.64 61.44-5.12 10.24-15.36 20.48-20.48 30.72-15.36 30.72 10.24 66.56 46.080 66.56h10.24c20.48 0 35.84-10.24 46.080-30.72 5.12-5.12 5.12-10.24 10.24-15.36 0 0 5.12-5.12 5.12-5.12 5.12 0 5.12-5.12 10.24-5.12s5.12-5.12 10.24-5.12c5.12 0 5.12 0 10.24-5.12 5.12 0 5.12 0 10.24-5.12 5.12 0 15.36 0 20.48 0 25.6 0 56.32 10.24 66.56 25.6 5.12 5.12 5.12 5.12 5.12 10.24 0 0 0 0 0 0 0 5.12 0 10.24 0 15.36 0 35.84-40.96 46.080-97.28 61.44-5.12 0-5.12 0-10.24 0v0c-35.84 10.24-76.8 20.48-102.4 40.96v0c0 0 0 0 0 0-5.12 5.12-15.36 10.24-20.48 15.36 0 0 0 0 0 5.12-5.12 5.12-10.24 10.24-10.24 20.48 0 5.12-5.12 5.12-5.12 10.24s-5.12 10.24-5.12 15.36c0 20.48 0 30.72 0 40.96 0 5.12 0 10.24 0 15.36v0c5.12 71.68 56.32 112.64 133.12 122.88v20.48c0 5.12 0 10.24 5.12 15.36 0 0 0 0 0 0 5.12 5.12 5.12 5.12 10.24 10.24 0 0 0 0 0 0v0c5.12 0 10.24 5.12 10.24 5.12h25.6c15.36 0 30.72-15.36 30.72-30.72v-15.36c35.84-5.12 61.44-20.48 81.92-35.84 5.12-5.12 5.12-5.12 10.24-10.24s5.12-5.12 10.24-10.24 10.24-15.36 15.36-25.6c15.36-35.84-10.24-71.68-46.080-71.68h-5.12c-20.48 0-40.96 10.24-46.080 25.6-5.12 5.12-5.12 10.24-10.24 15.36s-5.12 5.12-10.24 5.12c0 0-5.12 0-5.12 5.12-5.12 5.12-10.24 5.12-15.36 5.12 0 0 0 0 0 0-5.12 0-15.36 0-20.48 0v0c0 0 0 0-5.12 0-30.72 0-66.56-10.24-66.56-40.96v0c0 0 0 0 0-5.12s0-10.24 5.12-15.36c0 0 0 0 0-5.12 5.12-5.12 5.12-10.24 10.24-10.24 0 0 0 0 0 0 5.12-5.12 10.24-5.12 15.36-10.24 0 0 0 0 5.12 0 5.12-5.12 15.36-5.12 20.48-5.12 10.24-5.12 20.48-5.12 35.84-10.24 30.72-5.12 61.44-15.36 92.16-30.72 5.12 0 10.24-5.12 15.36-5.12s5.12-5.12 10.24-5.12 10.24-10.24 15.36-15.36c0 0 5.12-5.12 5.12-5.12 5.12-5.12 10.24-10.24 15.36-15.36 0 0 0 0 0-5.12 5.12-5.12 5.12-15.36 10.24-25.6 0 0 0-5.12 0-5.12 0-10.24 5.12-20.48 5.12-30.72 0-87.040-61.44-138.24-143.36-148.48z" />
<glyph unicode="&#xe940;" glyph-name="filtro" horiz-adv-x="763" d="M491.52 401.92v-291.84c0-10.24-5.12-25.6-15.36-30.72l-138.24-128c-25.6-25.6-71.68-5.12-71.68 30.72v419.84c0 10.24-5.12 25.6-15.36 30.72l-235.52 230.4c-10.24 10.24-15.36 20.48-15.36 30.72v225.28c0 20.48 20.48 40.96 40.96 40.96h675.84c25.6 0 40.96-20.48 40.96-40.96v-220.16c0-10.24-5.12-25.6-15.36-30.72l-240.64-230.4c-5.12-15.36-10.24-25.6-10.24-35.84z" />
<glyph unicode="&#xe941;" glyph-name="bell-sl" d="M942.080 94.72c30.72 0 51.2 25.6 51.2 51.2 0 15.36-10.24 30.72-20.48 40.96 0 0-5.12 5.12-10.24 10.24-81.92 66.56-133.12 168.96-133.12 281.6v179.2c0 163.84-128 302.080-317.44 302.080s-317.44-138.24-317.44-302.080v-174.080c0-112.64-51.2-215.040-133.12-281.6-5.12-5.12-10.24-10.24-10.24-10.24-15.36-10.24-20.48-25.6-20.48-40.96 0-30.72 25.6-51.2 51.2-51.2h860.16zM512-64c87.040 0 158.72 71.68 158.72 158.72h-317.44c0-87.040 71.68-158.72 158.72-158.72v0z" />
<glyph unicode="&#xe942;" glyph-name="filtro-doc" horiz-adv-x="1050" d="M506.88 478.72v-225.28c0-10.24-5.12-25.6-15.36-30.72l-122.88-112.64c-30.72-25.6-76.8-5.12-76.8 30.72v337.92c0 10.24-5.12 25.6-15.36 30.72l-266.24 256c-5.12 10.24-10.24 20.48-10.24 35.84v112.64c0 25.6 20.48 46.080 46.080 46.080h721.92c25.6 0 46.080-20.48 46.080-46.080v-112.64c0-10.24-5.12-25.6-15.36-30.72l-276.48-256c-10.24-10.24-15.36-20.48-15.36-35.84zM947.2 412.16h-209.92c-56.32 0-102.4-46.080-102.4-102.4v-271.36c0-56.32 46.080-102.4 102.4-102.4h209.92c56.32 0 102.4 46.080 102.4 102.4v271.36c0 56.32-46.080 102.4-102.4 102.4zM906.24 43.52h-122.88c-30.72 0-51.2 20.48-51.2 51.2s20.48 51.2 51.2 51.2h122.88c30.72 0 51.2-20.48 51.2-51.2s-25.6-51.2-51.2-51.2zM906.24 192h-122.88c-30.72 0-51.2 20.48-51.2 51.2s20.48 51.2 51.2 51.2h122.88c30.72 0 51.2-20.48 51.2-51.2s-25.6-51.2-51.2-51.2z" />
<glyph unicode="&#xe943;" glyph-name="inbox-sl" horiz-adv-x="1203" d="M1177.6 417.28c0 0 0 5.12 0 5.12 0 5.12-5.12 10.24-5.12 15.36 0 0 0 0 0 0l-179.2 419.84c-25.6 61.44-87.040 102.4-153.6 102.4h-476.16c-66.56 0-128-40.96-153.6-102.4l-179.2-414.72c0 0 0 0 0 0 0-5.12-5.12-10.24-5.12-15.36 0 0 0-5.12 0-5.12 0-5.12 0-5.12 0-10.24v-307.2c0-92.16 76.8-168.96 168.96-168.96h814.080c92.16 0 168.96 76.8 168.96 168.96v307.2c0 0 0 5.12 0 5.12zM281.6 826.88c15.36 35.84 46.080 56.32 87.040 56.32h471.040c35.84 0 71.68-20.48 87.040-56.32l148.48-337.92h-102.4c-76.8 0-138.24-46.080-163.84-117.76l-25.6-81.92h-358.4l-25.6 81.92c-20.48 71.68-87.040 117.76-163.84 117.76h-102.4l148.48 337.92z" />
<glyph unicode="&#xe944;" glyph-name="inicio" horiz-adv-x="1039" d="M1024 565.76l-481.28 389.12c-15.36 10.24-35.84 10.24-46.080 0l-481.28-389.12c-10.24-10.24-15.36-20.48-15.36-30.72v-174.080c0-15.36 20.48-25.6 30.72-15.36l81.92 66.56v-435.2c5.12-25.6 20.48-40.96 40.96-40.96h209.92c20.48 0 35.84 15.36 35.84 35.84v286.72c0 20.48 15.36 35.84 35.84 35.84h153.6c20.48 0 35.84-15.36 35.84-35.84v-286.72c0-20.48 15.36-35.84 35.84-35.84h209.92c20.48 0 35.84 15.36 35.84 35.84v435.2l81.92-66.56c10.24-10.24 30.72 0 30.72 15.36v179.2c20.48 10.24 15.36 20.48 5.12 30.72z" />
<glyph unicode="&#xe945;" glyph-name="nuevo-doc-sl" horiz-adv-x="1034" d="M983.040 960h-619.52c-25.6 0-51.2-20.48-51.2-51.2v-199.68c-179.2-35.84-312.32-194.56-312.32-384 0-215.040 174.080-389.12 389.12-389.12 143.36 0 266.24 76.8 332.8 189.44h261.12c25.6 0 51.2 20.48 51.2 51.2v732.16c0 30.72-20.48 51.2-51.2 51.2zM389.12 38.4c-158.72 0-286.72 128-286.72 286.72 0 133.12 87.040 245.76 209.92 276.48 10.24 5.12 20.48 5.12 35.84 5.12 0 0 5.12 0 5.12 0 10.24 0 25.6 5.12 35.84 5.12s25.6 0 35.84-5.12c5.12 0 5.12 0 10.24 0 10.24 0 20.48-5.12 30.72-5.12 0 0 5.12 0 5.12 0 25.6-5.12 46.080-15.36 66.56-30.72v0c25.6-15.36 46.080-30.72 66.56-56.32 15.36-20.48 30.72-40.96 40.96-61.44v0c15.36-25.6 25.6-56.32 30.72-92.16v0c0-15.36 5.12-25.6 5.12-40.96 0-10.24 0-20.48 0-30.72 0-5.12 0-10.24 0-15.36s0-10.24 0-15.36c0-5.12-5.12-10.24-5.12-20.48 0-5.12 0-5.12 0-10.24s-5.12-15.36-10.24-20.48c0 0 0-5.12 0-5.12-5.12-10.24-5.12-15.36-10.24-25.6 0 0 0 0 0 0-10.24-25.6-30.72-46.080-46.080-66.56v0c-66.56-35.84-138.24-71.68-220.16-71.68zM829.44 366.080h-51.2c-5.12 35.84-10.24 71.68-25.6 102.4h76.8c25.6 0 51.2-20.48 51.2-51.2s-25.6-51.2-51.2-51.2zM829.44 519.68h-97.28c-20.48 40.96-51.2 71.68-81.92 102.4h184.32c25.6 0 51.2-20.48 51.2-51.2s-30.72-51.2-56.32-51.2zM829.44 673.28h-256c-30.72 15.36-66.56 25.6-97.28 30.72 0 5.12-5.12 10.24-5.12 15.36 0 25.6 20.48 51.2 51.2 51.2h302.080c25.6 0 51.2-20.48 51.2-51.2s-20.48-46.080-46.080-46.080zM517.12 376.32h-76.8v76.8c0 25.6-20.48 51.2-51.2 51.2s-51.2-20.48-51.2-51.2v-76.8h-76.8c-25.6 0-51.2-20.48-51.2-51.2s20.48-51.2 51.2-51.2h76.8v-76.8c0-25.6 20.48-51.2 51.2-51.2s51.2 20.48 51.2 51.2v76.8h76.8c25.6 0 51.2 20.48 51.2 51.2s-20.48 51.2-51.2 51.2z" />
<glyph unicode="&#xe946;" glyph-name="cerrar-sl" d="M512 960c-281.6 0-512-230.4-512-512s230.4-512 512-512 512 230.4 512 512-230.4 512-512 512zM742.4 268.8c15.36-15.36 15.36-40.96 0-56.32-5.12-5.12-15.36-10.24-25.6-10.24s-20.48 5.12-25.6 10.24l-179.2 179.2-179.2-179.2c-5.12-5.12-15.36-10.24-25.6-10.24s-20.48 5.12-25.6 10.24c-15.36 15.36-15.36 40.96 0 56.32l174.080 179.2-174.080 179.2c-15.36 15.36-15.36 40.96 0 56.32s40.96 15.36 56.32 0l174.080-179.2 179.2 179.2c15.36 15.36 40.96 15.36 56.32 0s15.36-40.96 0-56.32l-179.2-179.2 174.080-179.2z" />
<glyph unicode="&#xe947;" glyph-name="chevron-down-xs" d="M512 176.64c-51.2 0-102.4 20.48-138.24 56.32l-353.28 353.28c-30.72 30.72-30.72 76.8 0 107.52 30.72 35.84 81.92 30.72 112.64 5.12l353.28-353.28c10.24-10.24 20.48-10.24 25.6-10.24s15.36 0 25.6 10.24l353.28 353.28c30.72 30.72 76.8 30.72 107.52 0s30.72-76.8 0-107.52l-353.28-353.28c-30.72-40.96-81.92-61.44-133.12-61.44z" />
<glyph unicode="&#xe948;" glyph-name="chevron-up-xs" d="M512 719.36c-51.2 0-102.4-20.48-138.24-56.32l-353.28-353.28c-30.72-30.72-30.72-76.8 0-107.52s76.8-30.72 107.52 0l353.28 353.28c15.36 10.24 25.6 10.24 30.72 10.24s15.36 0 25.6-10.24l353.28-353.28c30.72-30.72 76.8-30.72 107.52 0s30.72 76.8 0 107.52l-353.28 353.28c-30.72 35.84-81.92 56.32-133.12 56.32z" />
<glyph unicode="&#xe949;" glyph-name="chevron-up" d="M512 698.88c-40.96 0-81.92-15.36-107.52-46.080l-394.24-394.24c-15.36-15.36-15.36-40.96 0-56.32 15.36-10.24 40.96-10.24 56.32 5.12l389.12 394.24c30.72 30.72 81.92 30.72 107.52 0l394.24-394.24c15.36-15.36 40.96-15.36 56.32 0s15.36 40.96 0 56.32l-394.24 389.12c-25.6 30.72-66.56 46.080-107.52 46.080z" />
<glyph unicode="&#xe94a;" glyph-name="chevron-down" d="M512 197.12c-40.96 0-81.92 15.36-107.52 46.080l-394.24 394.24c-15.36 15.36-15.36 40.96 0 56.32 15.36 10.24 40.96 10.24 56.32-5.12l389.12-394.24c30.72-30.72 81.92-30.72 107.52 0l394.24 394.24c15.36 15.36 40.96 15.36 56.32 0s15.36-40.96 0-56.32l-394.24-389.12c-25.6-30.72-66.56-46.080-107.52-46.080z" />
<glyph unicode="&#xe94b;" glyph-name="aceptar-ol" d="M512 883.2c240.64 0 435.2-194.56 435.2-435.2s-194.56-435.2-435.2-435.2-435.2 194.56-435.2 435.2 194.56 435.2 435.2 435.2zM512 960c-281.6 0-512-230.4-512-512s230.4-512 512-512 512 230.4 512 512-230.4 512-512 512v0zM445.44 284.16c-10.24 0-20.48 5.12-25.6 10.24l-112.64 112.64c-15.36 15.36-15.36 40.96 0 56.32s40.96 15.36 56.32 0l81.92-81.92 220.16 215.040c15.36 15.36 40.96 15.36 56.32 0s15.36-40.96 0-56.32l-245.76-245.76c-15.36-5.12-20.48-10.24-30.72-10.24z" />
<glyph unicode="&#xe94c;" glyph-name="aceptar-sl" d="M512 960c-281.6 0-512-230.4-512-512s230.4-512 512-512 512 230.4 512 512-230.4 512-512 512zM721.92 540.16l-245.76-245.76c-15.36-5.12-20.48-10.24-30.72-10.24s-20.48 5.12-25.6 10.24l-112.64 112.64c-15.36 15.36-15.36 40.96 0 56.32s40.96 15.36 56.32 0l81.92-81.92 220.16 215.040c15.36 15.36 40.96 15.36 56.32 0s15.36-40.96 0-56.32z" />
<glyph unicode="&#xe94d;" glyph-name="cancelar-ol" d="M512 960c-281.6 0-512-230.4-512-512s230.4-512 512-512 512 230.4 512 512-230.4 512-512 512zM512 12.8c-240.64 0-435.2 194.56-435.2 435.2s194.56 435.2 435.2 435.2c240.64 0 435.2-194.56 435.2-435.2s-194.56-435.2-435.2-435.2zM691.2 627.2c-15.36 15.36-40.96 15.36-56.32 0l-122.88-122.88-128 122.88c-15.36 15.36-40.96 15.36-56.32 0s-15.36-40.96 0-56.32l128-122.88-128-128c-15.36-15.36-15.36-40.96 0-56.32 5.12-5.12 15.36-10.24 25.6-10.24s20.48 5.12 25.6 10.24l128 128 128-128c5.12-5.12 15.36-10.24 25.6-10.24s20.48 5.12 25.6 10.24c15.36 15.36 15.36 40.96 0 56.32l-117.76 128 128 128c10.24 15.36 10.24 35.84-5.12 51.2z" />
<glyph unicode="&#xe94e;" glyph-name="cancelar-sl" d="M512 960c-281.6 0-512-230.4-512-512s230.4-512 512-512 512 230.4 512 512-230.4 512-512 512zM691.2 320c15.36-15.36 15.36-40.96 0-56.32-5.12-5.12-15.36-10.24-25.6-10.24s-20.48 5.12-25.6 10.24l-128 128-128-128c-5.12-5.12-15.36-10.24-25.6-10.24s-20.48 5.12-25.6 10.24c-15.36 15.36-15.36 40.96 0 56.32l122.88 128-122.88 128c-15.36 15.36-15.36 40.96 0 56.32s40.96 15.36 56.32 0l122.88-128 128 128c15.36 15.36 40.96 15.36 56.32 0s15.36-40.96 0-56.32l-128-128 122.88-128z" />
<glyph unicode="&#xe94f;" glyph-name="crear-ol" d="M512 960c-281.6 0-512-230.4-512-512s230.4-512 512-512 512 230.4 512 512-230.4 512-512 512zM512 12.8c-240.64 0-435.2 194.56-435.2 435.2s194.56 435.2 435.2 435.2c240.64 0 435.2-194.56 435.2-435.2s-194.56-435.2-435.2-435.2zM691.2 483.84h-143.36v143.36c0 20.48-15.36 40.96-40.96 40.96s-30.72-20.48-30.72-40.96v-143.36h-143.36c-20.48 0-40.96-15.36-40.96-40.96s15.36-35.84 40.96-35.84h143.36v-143.36c0-20.48 15.36-40.96 40.96-40.96s40.96 15.36 40.96 40.96v143.36h143.36c20.48 0 40.96 15.36 40.96 35.84s-30.72 40.96-51.2 40.96z" />
<glyph unicode="&#xe950;" glyph-name="crear-sl" d="M512 960c-281.6 0-512-230.4-512-512s230.4-512 512-512c281.6 0 512 230.4 512 512s-230.4 512-512 512zM691.2 407.040h-143.36v-138.24c0-20.48-15.36-40.96-40.96-40.96s-40.96 15.36-40.96 40.96v138.24h-133.12c-20.48 0-40.96 15.36-40.96 40.96s15.36 40.96 40.96 40.96h143.36v138.24c0 20.48 15.36 40.96 40.96 40.96s40.96-15.36 40.96-40.96v-143.36h143.36c20.48 0 40.96-15.36 40.96-40.96s-30.72-35.84-51.2-35.84z" />
<glyph unicode="&#xe951;" glyph-name="menus" d="M988.16 407.040h-947.2c-25.6 0-40.96 20.48-40.96 40.96s15.36 40.96 40.96 40.96h947.2c20.48 0 40.96-15.36 40.96-40.96s-20.48-40.96-40.96-40.96z" />
<glyph unicode="&#xe952;" glyph-name="disminuir-ol" d="M512 883.2c240.64 0 435.2-194.56 435.2-435.2s-194.56-435.2-435.2-435.2-435.2 194.56-435.2 435.2 194.56 435.2 435.2 435.2zM512 960c-281.6 0-512-230.4-512-512s230.4-512 512-512 512 230.4 512 512-230.4 512-512 512v0zM691.2 407.040h-358.4c-20.48 0-40.96 15.36-40.96 40.96s15.36 40.96 40.96 40.96h358.4c20.48 0 40.96-15.36 40.96-40.96s-20.48-40.96-40.96-40.96z" />
<glyph unicode="&#xe953;" glyph-name="disminuir-sl" d="M512 960c-281.6 0-512-230.4-512-512s230.4-512 512-512 512 230.4 512 512-230.4 512-512 512zM691.2 412.16h-358.4c-20.48 0-40.96 15.36-40.96 35.84s15.36 40.96 40.96 40.96h358.4c20.48 0 40.96-15.36 40.96-40.96s-20.48-35.84-40.96-35.84z" />
<glyph unicode="&#xe954;" glyph-name="vista-rapida-sl" d="M517.12 540.16c-92.16 0-168.96-76.8-168.96-168.96s76.8-168.96 168.96-168.96c92.16 0 168.96 76.8 168.96 168.96s-76.8 168.96-168.96 168.96zM517.12 120.32c-138.24 0-245.76 112.64-245.76 245.76 0 138.24 112.64 245.76 245.76 245.76 138.24 0 245.76-112.64 245.76-245.76 0-56.32-20.48-102.4-46.080-143.36l209.92-215.040c10.24 20.48 15.36 40.96 15.36 66.56v742.4c0 76.8-61.44 143.36-143.36 143.36h-578.56c-76.8 0-138.24-61.44-138.24-143.36v-742.4c0-76.8 61.44-143.36 143.36-143.36h578.56c25.6 0 51.2 5.12 71.68 20.48l-209.92 215.040c-46.080-25.6-97.28-46.080-148.48-46.080z" />
<glyph unicode="&#xe955;" glyph-name="menu" d="M972.8 396.8h-921.6c-30.72 0-51.2 20.48-51.2 51.2s20.48 51.2 51.2 51.2h921.6c30.72 0 51.2-20.48 51.2-51.2s-20.48-51.2-51.2-51.2zM972.8 678.4h-921.6c-30.72 0-51.2 20.48-51.2 51.2s20.48 51.2 51.2 51.2h921.6c30.72 0 51.2-20.48 51.2-51.2s-20.48-51.2-51.2-51.2zM972.8 115.2h-921.6c-30.72 0-51.2 20.48-51.2 51.2s20.48 51.2 51.2 51.2h921.6c30.72 0 51.2-20.48 51.2-51.2s-20.48-51.2-51.2-51.2z" />
<glyph unicode="&#xe956;" glyph-name="configuraciones-sl" d="M967.68 309.76l-81.92 46.080c5.12 30.72 10.24 61.44 10.24 92.16s-5.12 61.44-10.24 92.16l81.92 46.080c20.48 15.36 30.72 46.080 15.36 66.56l-56.32 102.4c-15.36 25.6-46.080 30.72-66.56 20.48l-81.92-46.080c-40.96 40.96-97.28 71.68-153.6 92.16v87.040c0 25.6-20.48 51.2-51.2 51.2h-117.76c-25.6 0-51.2-20.48-51.2-51.2v-97.28c-61.44-15.36-112.64-51.2-153.6-92.16l-87.040 51.2c-20.48 15.36-51.2 5.12-66.56-15.36l-56.32-102.4c-15.36-20.48-5.12-51.2 15.36-66.56l81.92-46.080c-5.12-30.72-10.24-61.44-10.24-92.16s5.12-61.44 10.24-92.16l-81.92-46.080c-20.48-15.36-30.72-46.080-15.36-66.56l56.32-102.4c15.36-25.6 46.080-30.72 66.56-20.48l81.92 46.080c40.96-40.96 97.28-71.68 153.6-92.16v-87.040c0-25.6 20.48-51.2 51.2-51.2h117.76c25.6 0 51.2 20.48 51.2 51.2v97.28c61.44 15.36 112.64 51.2 153.6 92.16l81.92-46.080c25.6-15.36 56.32-5.12 66.56 20.48l56.32 102.4c20.48 10.24 10.24 40.96-10.24 56.32zM512 304.64c-76.8 0-143.36 61.44-143.36 143.36s66.56 143.36 143.36 143.36c76.8 0 143.36-61.44 143.36-143.36s-66.56-143.36-143.36-143.36z" />
<glyph unicode="&#xe957;" glyph-name="mover" d="M998.4 509.44l-122.88 122.88c-15.36 15.36-40.96 15.36-56.32 0s-15.36-40.96 0-56.32l92.16-92.16h-363.52v363.52l92.16-92.16c15.36-15.36 40.96-15.36 56.32 0s15.36 40.96 0 56.32l-122.88 122.88c-30.72 35.84-92.16 35.84-122.88 0l-122.88-122.88c-15.36-15.36-15.36-40.96 0-56.32 5.12-5.12 15.36-10.24 25.6-10.24s20.48 5.12 25.6 10.24l92.16 92.16v-363.52h-358.4l92.16 92.16c15.36 15.36 15.36 40.96 0 56.32s-40.96 15.36-56.32 0l-122.88-122.88c-15.36-15.36-25.6-35.84-25.6-61.44s10.24-46.080 25.6-61.44l122.88-122.88c5.12-5.12 15.36-10.24 25.6-10.24s20.48 5.12 25.6 10.24c15.36 15.36 15.36 40.96 0 56.32l-92.16 92.16h363.52v-363.52l-92.16 92.16c-15.36 15.36-40.96 15.36-56.32 0s-15.36-40.96 0-56.32l122.88-122.88c20.48-15.36 40.96-25.6 66.56-25.6s46.080 10.24 61.44 25.6l122.88 122.88c15.36 15.36 15.36 40.96 0 56.32s-40.96 15.36-56.32 0l-92.16-92.16v363.52h363.52l-92.16-92.16c-15.36-15.36-15.36-40.96 0-56.32 5.12-5.12 15.36-10.24 25.6-10.24s20.48 5.12 25.6 10.24l122.88 122.88c15.36 15.36 25.6 40.96 25.6 61.44 5.12 25.6-5.12 46.080-20.48 61.44z" />
<glyph unicode="&#xe958;" glyph-name="mover-variante" d="M993.28 519.68l-117.76 117.76c-20.48 20.48-51.2 20.48-71.68 0s-20.48-51.2 0-71.68l66.56-66.56h-307.2v307.2l66.56-66.56c10.24-10.24 25.6-15.36 35.84-15.36 15.36 0 25.6 5.12 35.84 15.36 20.48 20.48 20.48 51.2 0 71.68l-117.76 117.76c-35.84 35.84-102.4 35.84-143.36 0l-117.76-117.76c-20.48-20.48-20.48-51.2 0-71.68s51.2-20.48 71.68 0l66.56 66.56v-307.2h-307.2l66.56 66.56c20.48 20.48 20.48 51.2 0 71.68s-51.2 20.48-71.68 0l-117.76-117.76c-20.48-20.48-30.72-46.080-30.72-71.68s10.24-51.2 30.72-71.68l117.76-117.76c10.24-10.24 20.48-15.36 35.84-15.36s25.6 5.12 35.84 15.36c20.48 20.48 20.48 51.2 0 71.68l-66.56 66.56h307.2v-307.2l-66.56 66.56c-20.48 20.48-51.2 20.48-71.68 0s-20.48-51.2 0-71.68l117.76-117.76c20.48-20.48 46.080-30.72 71.68-30.72s51.2 10.24 71.68 30.72l117.76 117.76c20.48 20.48 20.48 51.2 0 71.68s-51.2 20.48-71.68 0l-66.56-66.56v307.2h307.2l-66.56-66.56c-20.48-20.48-20.48-51.2 0-71.68 10.24-10.24 25.6-15.36 35.84-15.36 15.36 0 25.6 5.12 35.84 15.36l117.76 117.76c20.48 20.48 30.72 46.080 30.72 71.68s-10.24 51.2-30.72 71.68z" />
<glyph unicode="&#xe959;" glyph-name="opciones" d="M614.4 857.6c0-56.554-45.846-102.4-102.4-102.4s-102.4 45.846-102.4 102.4c0 56.554 45.846 102.4 102.4 102.4s102.4-45.846 102.4-102.4zM614.4 38.4c0-56.554-45.846-102.4-102.4-102.4s-102.4 45.846-102.4 102.4c0 56.554 45.846 102.4 102.4 102.4s102.4-45.846 102.4-102.4zM614.4 448c0-56.554-45.846-102.4-102.4-102.4s-102.4 45.846-102.4 102.4c0 56.554 45.846 102.4 102.4 102.4s102.4-45.846 102.4-102.4z" />
<glyph unicode="&#xe95a;" glyph-name="grafico-cr-ol" d="M348.16 750.080v-465.92h465.92c-46.080-143.36-184.32-245.76-343.040-245.76-204.8 0-368.64 163.84-368.64 368.64 0 158.72 102.4 296.96 245.76 343.040zM450.56 872.96c-250.88-10.24-450.56-215.040-450.56-465.92 0-261.12 209.92-471.040 471.040-471.040 256 0 460.8 199.68 471.040 450.56-15.36 0-486.4 0-486.4 0s-5.12 471.040-5.12 486.4v0zM655.36 842.24c122.88-35.84 215.040-128 250.88-250.88h-250.88v250.88zM552.96 960c0-71.68 0-471.040 0-471.040s384 0 471.040 0c0 261.12-209.92 471.040-471.040 471.040v0z" />
<glyph unicode="&#xe95b;" glyph-name="gespro" d="M568.32 704h-450.56c-66.56 0-117.76 51.2-117.76 112.64v25.6c0 66.56 51.2 117.76 117.76 117.76h450.56c61.44 0 117.76-51.2 117.76-117.76v-25.6c-5.12-61.44-56.32-112.64-117.76-112.64zM737.28 320h-450.56c-61.44 0-117.76 51.2-117.76 117.76v20.48c0 61.44 51.2 117.76 117.76 117.76h450.56c61.44 0 112.64-51.2 112.64-117.76v-25.6c5.12-61.44-46.080-112.64-112.64-112.64zM911.36-64h-455.68c-61.44 0-117.76 51.2-117.76 117.76v25.6c0 61.44 51.2 117.76 117.76 117.76h450.56c61.44 0 117.76-51.2 117.76-117.76v-25.6c0-66.56-51.2-117.76-112.64-117.76z" />
<glyph unicode="&#xe95c;" glyph-name="matriz-sl" horiz-adv-x="896" d="M348.16-64l-348.16 230.4v460.8l348.16-230.4zM896 627.2l-343.040-230.4v-460.8l348.16 230.4v460.8zM450.56 960l-348.16-230.4 348.16-230.4 348.16 230.4z" />
<glyph unicode="&#xe95d;" glyph-name="matriz" horiz-adv-x="896" d="M348.16-64l-348.16 230.4v460.8l348.16-230.4zM793.6 437.76v-215.040l-143.36-92.16v215.040l143.36 92.16zM896 627.2l-343.040-230.4v-460.8l348.16 230.4v460.8h-5.12zM450.56 837.12l163.84-107.52-163.84-107.52-163.84 107.52 163.84 107.52zM450.56 960l-348.16-230.4 348.16-230.4 348.16 230.4-348.16 230.4z" />
<glyph unicode="&#xe95e;" glyph-name="prefactura-ol" d="M829.44 883.2c20.48 0 40.96-15.36 40.96-40.96v-793.6c0-20.48-15.36-40.96-40.96-40.96h-634.88c-20.48 0-40.96 15.36-40.96 40.96v793.6c0 20.48 15.36 40.96 40.96 40.96h634.88zM829.44 960h-634.88c-66.56 0-117.76-51.2-117.76-117.76v-793.6c0-61.44 51.2-117.76 117.76-117.76h634.88c61.44 0 117.76 51.2 117.76 117.76v793.6c0 66.56-51.2 117.76-117.76 117.76v0zM742.4 289.28h-460.8c-20.48 0-40.96 15.36-40.96 40.96s15.36 40.96 40.96 40.96h465.92c20.48 0 40.96-15.36 40.96-40.96s-25.6-40.96-46.080-40.96zM742.4 110.080h-460.8c-20.48 0-40.96 15.36-40.96 40.96 0 20.48 15.36 40.96 40.96 40.96h465.92c20.48 0 40.96-15.36 40.96-40.96-5.12-25.6-25.6-40.96-46.080-40.96zM537.6 499.2v-15.36c0-10.24-10.24-15.36-15.36-15.36h-20.48c-10.24 0-15.36 10.24-15.36 15.36v15.36c-40.96 5.12-66.56 25.6-81.92 56.32-5.12 15.36 10.24 40.96 30.72 40.96h5.12c10.24 0 20.48-5.12 25.6-15.36 5.12-20.48 25.6-25.6 46.080-25.6 25.6 0 46.080 10.24 46.080 30.72s-25.6 30.72-56.32 35.84c-46.080 10.24-97.28 25.6-97.28 87.040 0 46.080 30.72 76.8 81.92 87.040v10.24c0 10.24 10.24 15.36 15.36 15.36h15.36c10.24 0 15.36-10.24 15.36-15.36v-10.24c35.84-5.12 61.44-20.48 71.68-51.2 10.24-20.48-5.12-40.96-25.6-40.96v0c-10.24 0-25.6 5.12-30.72 15.36-5.12 15.36-20.48 20.48-40.96 20.48s-40.96-10.24-40.96-25.6c0-20.48 25.6-25.6 56.32-35.84 46.080-10.24 102.4-25.6 102.4-92.16-5.12-51.2-40.96-81.92-87.040-87.040zM757.76 606.72h-35.84c-20.48 0-40.96 15.36-40.96 40.96s15.36 40.96 40.96 40.96h35.84c20.48 0 40.96-15.36 40.96-40.96s-20.48-40.96-40.96-40.96zM302.080 606.72h-35.84c-20.48 0-40.96 15.36-40.96 40.96s15.36 40.96 40.96 40.96h35.84c20.48 0 40.96-15.36 40.96-40.96s-20.48-40.96-40.96-40.96z" />
<glyph unicode="&#xe95f;" glyph-name="factura-ol" horiz-adv-x="1060" d="M901.12 960h-742.4c-87.040 0-158.72-71.68-158.72-153.6v-291.84c0-35.84 20.48-66.56 51.2-87.040 15.36-10.24 30.72-15.36 51.2-15.36 15.36 0 30.72 5.12 46.080 10.24l25.6 25.6v-358.4c0-87.040 71.68-153.6 153.6-153.6h573.44c87.040 0 153.6 71.68 153.6 153.6v716.8c5.12 81.92-66.56 153.6-153.6 153.6zM138.24 540.16l-35.84-20.48v286.72c0 30.72 25.6 51.2 51.2 51.2h20.48v-307.2c-10.24 0-25.6-5.12-35.84-10.24zM957.44 89.6c0-30.72-25.6-51.2-51.2-51.2h-578.56c-30.72 0-51.2 25.6-51.2 51.2v768h624.64c30.72 0 51.2-25.6 51.2-51.2v-716.8zM819.2 284.16v-15.36c0-10.24-10.24-20.48-20.48-20.48h-15.36c-10.24 0-20.48 10.24-20.48 20.48v15.36c-40.96 5.12-76.8 30.72-87.040 61.44-10.24 20.48 10.24 46.080 30.72 46.080h5.12c15.36 0 25.6-10.24 30.72-20.48 10.24-15.36 30.72-25.6 51.2-25.6 25.6 0 51.2 15.36 51.2 35.84 0 25.6-30.72 30.72-61.44 40.96-51.2 10.24-107.52 25.6-107.52 97.28 0 51.2 35.84 87.040 87.040 92.16v15.36c0 10.24 10.24 20.48 20.48 20.48h15.36c10.24 0 20.48-10.24 20.48-20.48v-10.24c40.96-5.12 66.56-25.6 76.8-56.32 10.24-20.48-5.12-46.080-30.72-46.080v0c-15.36 0-25.6 5.12-30.72 15.36-10.24 15.36-30.72 20.48-51.2 20.48s-46.080-10.24-46.080-30.72c0-20.48 25.6-30.72 61.44-35.84 51.2-10.24 112.64-25.6 112.64-102.4 0-56.32-40.96-87.040-92.16-97.28zM522.24 473.6h-128c-30.72 0-51.2 20.48-51.2 51.2s20.48 51.2 51.2 51.2h128c30.72 0 51.2-20.48 51.2-51.2s-20.48-51.2-51.2-51.2zM573.44 320h-179.2c-30.72 0-51.2 20.48-51.2 51.2s20.48 51.2 51.2 51.2h179.2c30.72 0 51.2-20.48 51.2-51.2s-20.48-51.2-51.2-51.2zM860.16 89.6h-465.92c-30.72 0-51.2 20.48-51.2 51.2s20.48 51.2 51.2 51.2h465.92c30.72 0 51.2-20.48 51.2-51.2s-25.6-51.2-51.2-51.2zM522.24 704h-128c-30.72 0-51.2 20.48-51.2 51.2s20.48 51.2 51.2 51.2h128c30.72 0 51.2-20.48 51.2-51.2s-20.48-51.2-51.2-51.2zM860.16 704h-46.080c-30.72 0-51.2 20.48-51.2 51.2s20.48 51.2 51.2 51.2h46.080c30.72 0 51.2-20.48 51.2-51.2s-25.6-51.2-51.2-51.2z" />
<glyph unicode="&#xe960;" glyph-name="eliminar-ol" d="M901.12 837.12h-215.040c5.12 66.56-51.2 122.88-122.88 122.88h-102.4c-71.68 0-128-56.32-128-122.88h-209.92c-40.96 0-76.8-35.84-76.8-76.8v-30.72c0-46.080 35.84-76.8 76.8-76.8v0l30.72-599.040c5.12-66.56 61.44-117.76 128-117.76h460.8c66.56 0 122.88 51.2 122.88 117.76l35.84 599.040c40.96 0 76.8 35.84 76.8 76.8v30.72c0 40.96-35.84 76.8-76.8 76.8zM793.6 58.88c0-25.6-20.48-46.080-51.2-46.080h-460.8c-25.6 0-46.080 20.48-51.2 46.080l-30.72 593.92h624.64l-30.72-593.92zM394.24 166.4c20.48 0 40.96 15.36 40.96 40.96v291.84c0 20.48-15.36 40.96-40.96 40.96s-35.84-20.48-35.84-40.96v-291.84c0-25.6 15.36-40.96 35.84-40.96zM629.76 166.4c20.48 0 40.96 15.36 40.96 40.96v291.84c0 20.48-15.36 40.96-40.96 40.96s-40.96-20.48-40.96-40.96v-291.84c0-25.6 20.48-40.96 40.96-40.96z" />
<glyph unicode="&#xe961;" glyph-name="chats-ol" horiz-adv-x="1147" d="M1136.64 273.92c0 112.64-71.68 209.92-174.080 266.24-5.12-25.6-10.24-51.2-15.36-76.8 71.68-46.080 112.64-112.64 112.64-189.44 0-56.32-25.6-112.64-76.8-158.72-20.48-15.36-25.6-40.96-25.6-66.56v-10.24l-25.6 10.24c-10.24 5.12-25.6 10.24-35.84 10.24s-15.36 0-25.6-5.12c-35.84-15.36-76.8-20.48-122.88-20.48-107.52 0-199.68 46.080-256 107.52-15.36 0-35.84 0-51.2 0s-25.6 0-40.96 5.12c61.44-112.64 194.56-184.32 348.16-184.32 51.2 0 102.4 10.24 143.36 25.6v0l71.68-35.84c5.12-5.12 15.36-5.12 20.48-5.12 30.72 0 56.32 25.6 51.2 61.44l-10.24 56.32c76.8 56.32 112.64 128 112.64 209.92zM890.88 586.24c0 199.68-194.56 363.52-440.32 363.52s-440.32-163.84-440.32-363.52c0-97.28 40.96-179.2 112.64-245.76v0l-10.24-81.92c-5.12-30.72 20.48-61.44 51.2-61.44 5.12 0 15.36 0 20.48 5.12l97.28 46.080c51.2-15.36 107.52-25.6 168.96-25.6 240.64 0 440.32 158.72 440.32 363.52zM281.6 325.12c-10.24 0-25.6-5.12-35.84-10.24l-51.2-25.6 5.12 35.84c5.12 25.6-5.12 51.2-25.6 66.56-56.32 51.2-87.040 117.76-87.040 189.44 0 158.72 163.84 286.72 363.52 286.72s363.52-128 363.52-286.72-163.84-286.72-363.52-286.72c-51.2 0-97.28 10.24-143.36 25.6-10.24 5.12-15.36 5.12-25.6 5.12z" />
<glyph unicode="&#xe962;" glyph-name="coin" d="M512 960c-281.6 0-512-230.4-512-512s230.4-512 512-512 512 230.4 512 512-230.4 512-512 512zM563.2 151.040v-25.6c0-20.48-15.36-35.84-35.84-35.84h-30.72c-20.48 0-35.84 15.36-35.84 35.84v25.6c-76.8 10.24-138.24 51.2-163.84 117.76-15.36 35.84 15.36 76.8 56.32 76.8h10.24c25.6 0 40.96-15.36 56.32-35.84 15.36-30.72 51.2-46.080 92.16-46.080 46.080 0 97.28 25.6 97.28 66.56 0 46.080-51.2 56.32-117.76 71.68-87.040 20.48-199.68 46.080-199.68 174.080 0 97.28 61.44 158.72 163.84 168.96v25.6c0 20.48 15.36 35.84 30.72 35.84h30.72c20.48 0 35.84-15.36 35.84-35.84v-20.48c71.68-10.24 122.88-46.080 148.48-97.28 20.48-40.96-10.24-87.040-56.32-87.040h-5.12c-25.6 0-46.080 10.24-56.32 30.72-15.36 25.6-46.080 40.96-81.92 40.96-40.96 0-81.92-15.36-81.92-51.2 0-40.96 51.2-56.32 112.64-71.68 92.16-20.48 204.8-51.2 204.8-184.32-5.12-102.4-76.8-163.84-174.080-179.2z" />
<glyph unicode="&#xe963;" glyph-name="coin-outline" d="M512 883.2c240.64 0 435.2-194.56 435.2-435.2s-194.56-435.2-435.2-435.2-435.2 194.56-435.2 435.2 194.56 435.2 435.2 435.2zM512 960c-281.6 0-512-230.4-512-512s230.4-512 512-512 512 230.4 512 512-230.4 512-512 512v0zM563.2 151.040v-25.6c0-20.48-15.36-35.84-35.84-35.84h-30.72c-20.48 0-35.84 15.36-35.84 35.84v25.6c-76.8 10.24-138.24 51.2-163.84 117.76-15.36 35.84 15.36 76.8 56.32 76.8h10.24c25.6 0 40.96-15.36 56.32-35.84 15.36-30.72 51.2-46.080 92.16-46.080 46.080 0 97.28 25.6 97.28 66.56 0 46.080-51.2 56.32-117.76 71.68-87.040 20.48-199.68 46.080-199.68 174.080 0 97.28 61.44 158.72 163.84 168.96v25.6c0 20.48 15.36 35.84 30.72 35.84h30.72c20.48 0 35.84-15.36 35.84-35.84v-20.48c71.68-10.24 122.88-46.080 148.48-97.28 20.48-40.96-10.24-87.040-56.32-87.040h-5.12c-25.6 0-46.080 10.24-56.32 30.72-15.36 25.6-46.080 40.96-81.92 40.96-40.96 0-81.92-15.36-81.92-51.2 0-40.96 51.2-56.32 112.64-71.68 92.16-20.48 204.8-51.2 204.8-184.32-5.12-102.4-76.8-163.84-174.080-179.2z" />
<glyph unicode="&#xe964;" glyph-name="cop" horiz-adv-x="635" d="M389.12 23.040v-35.84c0-25.6-20.48-51.2-51.2-51.2h-46.080c-25.6 0-51.2 20.48-51.2 51.2v35.84c-112.64 15.36-194.56 76.8-230.4 163.84-25.6 56.32 20.48 117.76 81.92 117.76h15.36c35.84 0 61.44-20.48 76.8-51.2 20.48-46.080 71.68-66.56 128-66.56 66.56 0 138.24 35.84 138.24 92.16 0 66.56-76.8 81.92-168.96 102.4-128 35.84-281.6 71.68-281.6 256 0 133.12 87.040 220.16 230.4 240.64v30.72c0 25.6 20.48 51.2 51.2 51.2h46.080c25.6 0 51.2-20.48 51.2-51.2v-30.72c102.4-15.36 168.96-66.56 204.8-143.36 25.6-56.32-15.36-122.88-76.8-122.88h-5.12c-35.84 0-66.56 15.36-81.92 46.080-20.48 40.96-66.56 61.44-117.76 61.44-61.44 0-117.76-25.6-117.76-76.8 0-61.44 71.68-76.8 163.84-97.28 128-30.72 291.84-71.68 291.84-261.12-5.12-153.6-112.64-240.64-250.88-261.12z" />
<glyph unicode="&#xe965;" glyph-name="secure-sl" d="M870.4 601.6h-46.080v61.44c0 163.84-133.12 296.96-296.96 296.96h-30.72c-163.84 0-296.96-133.12-296.96-296.96v-61.44h-46.080c-66.56 0-117.76-51.2-117.76-117.76v-435.2c0-61.44 51.2-112.64 117.76-112.64h716.8c61.44 0 117.76 51.2 117.76 117.76v430.080c0 66.56-51.2 117.76-117.76 117.76zM573.44 258.56c0-30.72-25.6-56.32-56.32-56.32h-5.12c-30.72 0-56.32 25.6-56.32 56.32v51.2c0 30.72 25.6 56.32 56.32 56.32v0c30.72 0 56.32-25.6 56.32-56.32v-51.2zM747.52 601.6h-471.040v61.44c0 122.88 97.28 220.16 220.16 220.16h25.6c122.88 0 220.16-97.28 220.16-220.16v-61.44z" />
<glyph unicode="&#xe966;" glyph-name="secure-ol" d="M870.4 601.6h-46.080v61.44c0 163.84-133.12 296.96-296.96 296.96h-30.72c-163.84 0-296.96-133.12-296.96-296.96v-61.44h-46.080c-66.56 0-117.76-51.2-117.76-117.76v-435.2c0-61.44 51.2-112.64 117.76-112.64h716.8c61.44 0 117.76 51.2 117.76 117.76v430.080c0 66.56-51.2 117.76-117.76 117.76zM276.48 663.040c0 122.88 97.28 220.16 220.16 220.16h25.6c122.88 0 220.16-97.28 220.16-220.16v-61.44h-465.92v61.44zM911.36 48.64c0-20.48-15.36-40.96-40.96-40.96h-716.8c-20.48 0-40.96 15.36-40.96 40.96v435.2c0 20.48 15.36 40.96 40.96 40.96h716.8c20.48 0 40.96-15.36 40.96-40.96v-435.2zM512 202.24v0c-35.84 0-61.44 25.6-61.44 56.32v51.2c0 30.72 25.6 56.32 56.32 56.32h5.12c30.72 0 56.32-25.6 56.32-56.32v-51.2c5.12-30.72-20.48-56.32-56.32-56.32z" />
<glyph unicode="&#xe967;" glyph-name="building-ol" d="M906.24 724.48h-240.64v117.76c0 66.56-51.2 117.76-117.76 117.76h-430.080c-61.44 0-112.64-51.2-112.64-117.76v-906.24h1018.88v670.72c-5.12 66.56-56.32 117.76-117.76 117.76zM588.8 12.8h-506.88v829.44c0 20.48 15.36 40.96 40.96 40.96h430.080c20.48 0 40.96-15.36 40.96-40.96v-829.44zM942.080 12.8h-276.48v634.88h240.64c20.48 0 40.96-15.36 40.96-40.96v-593.92zM158.72 775.68h143.36v-112.64h-143.36v112.64zM158.72 596.48h143.36v-112.64h-143.36v112.64zM158.72 417.28h143.36v-112.64h-143.36v112.64zM368.64 775.68h143.36v-112.64h-143.36v112.64zM368.64 596.48h143.36v-112.64h-143.36v112.64zM368.64 417.28h143.36v-112.64h-143.36v112.64zM158.72 232.96h143.36v-112.64h-143.36v112.64zM368.64 232.96h143.36v-112.64h-143.36v112.64zM727.040 540.16h128v-102.4h-128v102.4zM727.040 381.44h128v-102.4h-128v102.4zM727.040 222.72h128v-102.4h-128v102.4z" />
<glyph unicode="&#xe968;" glyph-name="building-sl" d="M906.24 724.48h-240.64v117.76c0 66.56-51.2 117.76-117.76 117.76h-430.080c-61.44 0-112.64-51.2-112.64-117.76v-906.24h1018.88v670.72c-5.12 66.56-56.32 117.76-117.76 117.76zM302.080 120.32h-143.36v112.64h143.36v-112.64zM302.080 299.52h-143.36v112.64h143.36v-112.64zM302.080 478.72h-143.36v117.76h143.36v-117.76zM302.080 663.040h-143.36v112.64h143.36v-112.64zM512 120.32h-143.36v112.64h143.36v-112.64zM512 299.52h-143.36v112.64h143.36v-112.64zM512 478.72h-143.36v117.76h143.36v-117.76zM512 663.040h-143.36v112.64h143.36v-112.64zM906.24 120.32h-128v102.4h128v-102.4zM906.24 279.040h-128v102.4h128v-102.4zM906.24 437.76h-128v102.4h128v-102.4z" />
<glyph unicode="&#xe969;" glyph-name="code-sl" d="M911.36 345.6h-225.28c61.44 0 117.76 51.2 117.76 117.76v163.84c0 56.32-40.96 107.52-97.28 112.64v35.84c-10.24 102.4-92.16 184.32-194.56 184.32s-184.32-81.92-184.32-184.32v-30.72c-56.32-10.24-102.4-56.32-102.4-117.76v-168.96c0-61.44 51.2-117.76 117.76-117.76h-225.28c-66.56 5.12-117.76-46.080-117.76-112.64v-179.2c0-61.44 51.2-112.64 117.76-112.64h793.6c61.44 0 117.76 51.2 117.76 117.76v179.2c-5.12 61.44-56.32 112.64-117.76 112.64zM430.080 775.68c0 46.080 35.84 81.92 81.92 81.92s81.92-35.84 81.92-81.92v-30.72h-163.84v30.72zM235.52 58.88h-107.52c-15.36 0-25.6 10.24-25.6 25.6s10.24 25.6 25.6 25.6h107.52c15.36 0 25.6-10.24 25.6-25.6s-15.36-25.6-25.6-25.6zM455.68 58.88h-107.52c-15.36 0-25.6 10.24-25.6 25.6s10.24 25.6 25.6 25.6h107.52c15.36 0 25.6-10.24 25.6-25.6s-10.24-25.6-25.6-25.6zM517.12 504.32h-10.24c-15.36 0-30.72 15.36-30.72 30.72v40.96c0 15.36 15.36 30.72 30.72 30.72h10.24c15.36 0 30.72-15.36 30.72-30.72v-40.96c0-15.36-15.36-30.72-30.72-30.72zM675.84 58.88h-107.52c-15.36 0-25.6 10.24-25.6 25.6s10.24 25.6 25.6 25.6h107.52c15.36 0 25.6-10.24 25.6-25.6s-10.24-25.6-25.6-25.6zM896 58.88h-107.52c-15.36 0-25.6 10.24-25.6 25.6s10.24 25.6 25.6 25.6h107.52c15.36 0 25.6-10.24 25.6-25.6s-10.24-25.6-25.6-25.6z" />
<glyph unicode="&#xe96a;" glyph-name="password-sl" d="M911.36 345.6h-225.28c61.44 0 117.76 51.2 117.76 117.76v163.84c0 56.32-40.96 107.52-97.28 112.64v35.84c-10.24 102.4-92.16 184.32-194.56 184.32s-184.32-81.92-184.32-184.32v-30.72c-56.32-10.24-102.4-56.32-102.4-117.76v-168.96c0-61.44 51.2-117.76 117.76-117.76h-225.28c-66.56 5.12-117.76-46.080-117.76-112.64v-179.2c0-61.44 51.2-112.64 117.76-112.64h793.6c61.44 0 117.76 51.2 117.76 117.76v179.2c-5.12 61.44-56.32 112.64-117.76 112.64zM430.080 775.68c0 46.080 35.84 81.92 81.92 81.92s81.92-35.84 81.92-81.92v-30.72h-163.84v30.72zM250.88 120.32c10.24-10.24 15.36-25.6 5.12-35.84-5.12-5.12-10.24-10.24-20.48-10.24-5.12 0-10.24 0-15.36 5.12l-15.36 10.24v-10.24c0-15.36-10.24-25.6-25.6-25.6s-25.6 10.24-25.6 25.6v10.24l-10.24-10.24c-5.12-5.12-10.24-5.12-15.36-5.12s-15.36 5.12-20.48 10.24c-10.24 10.24-5.12 25.6 5.12 35.84l25.6 20.48-25.6 20.48c-10.24 10.24-15.36 25.6-5.12 35.84s25.6 15.36 35.84 5.12l10.24-10.24v10.24c0 15.36 10.24 25.6 25.6 25.6s25.6-10.24 25.6-25.6v-10.24l10.24 10.24c10.24 10.24 25.6 5.12 35.84-5.12s5.12-25.6-5.12-35.84l-25.6-20.48 30.72-20.48zM471.040 120.32c10.24-10.24 15.36-25.6 5.12-35.84-5.12-5.12-10.24-10.24-20.48-10.24-5.12 0-10.24 0-15.36 5.12l-15.36 10.24v-10.24c0-15.36-10.24-25.6-25.6-25.6s-25.6 10.24-25.6 25.6v10.24l-10.24-10.24c-5.12-5.12-10.24-5.12-15.36-5.12s-15.36 5.12-20.48 10.24c-10.24 10.24-5.12 25.6 5.12 35.84l25.6 20.48-25.6 20.48c-10.24 10.24-15.36 25.6-5.12 35.84s25.6 15.36 35.84 5.12l10.24-10.24v10.24c0 15.36 10.24 25.6 25.6 25.6s25.6-10.24 25.6-25.6v-10.24l10.24 10.24c10.24 10.24 25.6 5.12 35.84-5.12s5.12-25.6-5.12-35.84l-25.6-20.48 30.72-20.48zM517.12 504.32h-10.24c-15.36 0-30.72 15.36-30.72 30.72v40.96c0 15.36 15.36 30.72 30.72 30.72h10.24c15.36 0 30.72-15.36 30.72-30.72v-40.96c0-15.36-15.36-30.72-30.72-30.72zM691.2 120.32c10.24-10.24 15.36-25.6 5.12-35.84-5.12-5.12-10.24-10.24-20.48-10.24-5.12 0-10.24 0-15.36 5.12l-10.24 10.24v-10.24c0-15.36-10.24-25.6-25.6-25.6s-25.6 10.24-25.6 25.6v10.24l-10.24-10.24c-5.12-5.12-10.24-5.12-15.36-5.12s-15.36 5.12-20.48 10.24c-10.24 10.24-5.12 25.6 5.12 35.84l25.6 20.48-25.6 20.48c-10.24 10.24-15.36 25.6-5.12 35.84s25.6 10.24 35.84 5.12l10.24-10.24v10.24c0 15.36 10.24 25.6 25.6 25.6s25.6-10.24 25.6-25.6v-10.24l10.24 10.24c10.24 10.24 25.6 5.12 35.84-5.12s5.12-25.6-5.12-35.84l-25.6-20.48 25.6-20.48zM911.36 120.32c10.24-10.24 15.36-25.6 5.12-35.84-5.12-5.12-10.24-10.24-20.48-10.24-5.12 0-10.24 0-15.36 5.12l-10.24 10.24v-10.24c0-15.36-10.24-25.6-25.6-25.6s-25.6 10.24-25.6 25.6v10.24l-10.24-10.24c-5.12-5.12-10.24-5.12-15.36-5.12s-15.36 5.12-20.48 10.24c-10.24 10.24-5.12 25.6 5.12 35.84l25.6 20.48-25.6 20.48c-10.24 10.24-15.36 25.6-5.12 35.84s25.6 10.24 35.84 5.12l10.24-10.24v10.24c0 15.36 10.24 25.6 25.6 25.6s25.6-10.24 25.6-25.6v-10.24l10.24 10.24c10.24 10.24 25.6 5.12 35.84-5.12s5.12-25.6-5.12-35.84l-25.6-20.48 25.6-20.48z" />
<glyph unicode="&#xe96b;" glyph-name="password-ol" d="M911.36 345.6h-225.28c61.44 0 117.76 51.2 117.76 117.76v163.84c0 56.32-40.96 107.52-97.28 112.64v35.84c-10.24 102.4-92.16 184.32-194.56 184.32s-184.32-81.92-184.32-184.32v-30.72c-56.32-10.24-102.4-56.32-102.4-117.76v-168.96c0-61.44 51.2-117.76 117.76-117.76h-225.28c-66.56 5.12-117.76-46.080-117.76-112.64v-179.2c0-61.44 51.2-112.64 117.76-112.64h793.6c61.44 0 117.76 51.2 117.76 117.76v179.2c-5.12 61.44-56.32 112.64-117.76 112.64zM547.84 576v-40.96c0-15.36-15.36-30.72-30.72-30.72h-10.24c-15.36 0-30.72 15.36-30.72 30.72v40.96c0 15.36 15.36 30.72 30.72 30.72h10.24c15.36 0 30.72-15.36 30.72-30.72zM512 857.6c46.080 0 81.92-35.84 81.92-81.92v-30.72h-163.84v30.72c0 46.080 35.84 81.92 81.92 81.92zM952.32 64c0-30.72-20.48-51.2-51.2-51.2h-778.24c-30.72 0-51.2 20.48-51.2 51.2v153.6c0 30.72 20.48 51.2 51.2 51.2h778.24c30.72 0 51.2-20.48 51.2-51.2v-153.6zM256 197.12c-10.24 10.24-25.6 15.36-35.84 5.12l-15.36-10.24v10.24c0 15.36-10.24 25.6-25.6 25.6s-25.6-10.24-25.6-25.6v-10.24l-10.24 10.24c-10.24 10.24-25.6 5.12-35.84-5.12s-5.12-25.6 5.12-35.84l25.6-20.48-25.6-20.48c-10.24-10.24-15.36-25.6-5.12-35.84 5.12-5.12 10.24-10.24 20.48-10.24 5.12 0 10.24 0 15.36 5.12l10.24 10.24v-10.24c0-15.36 10.24-25.6 25.6-25.6s25.6 10.24 25.6 25.6v10.24l10.24-10.24c5.12-5.12 10.24-5.12 15.36-5.12s15.36 5.12 20.48 10.24c10.24 10.24 5.12 25.6-5.12 35.84l-25.6 20.48 25.6 20.48c15.36 10.24 15.36 25.6 10.24 35.84zM696.32 197.12c-10.24 10.24-25.6 10.24-35.84 5.12l-10.24-10.24v10.24c0 15.36-10.24 25.6-25.6 25.6s-25.6-10.24-25.6-25.6v-10.24l-10.24 10.24c-10.24 10.24-25.6 5.12-35.84-5.12s-5.12-25.6 5.12-35.84l25.6-20.48-25.6-20.48c-10.24-10.24-15.36-25.6-5.12-35.84 5.12-5.12 10.24-10.24 20.48-10.24 5.12 0 10.24 0 15.36 5.12l10.24 10.24v-10.24c0-15.36 10.24-25.6 25.6-25.6s25.6 10.24 25.6 25.6v10.24l10.24-10.24c5.12-5.12 10.24-5.12 15.36-5.12s15.36 5.12 20.48 10.24c10.24 10.24 5.12 25.6-5.12 35.84l-25.6 20.48 25.6 20.48c10.24 10.24 15.36 25.6 5.12 35.84zM885.76 140.8l25.6 20.48c10.24 10.24 15.36 25.6 5.12 35.84s-25.6 10.24-35.84 5.12l-10.24-10.24v10.24c0 15.36-10.24 25.6-25.6 25.6s-25.6-10.24-25.6-25.6v-10.24l-10.24 10.24c-10.24 10.24-25.6 5.12-35.84-5.12s-5.12-25.6 5.12-35.84l25.6-20.48-25.6-20.48c-10.24-10.24-15.36-25.6-5.12-35.84 5.12-5.12 10.24-10.24 20.48-10.24 5.12 0 10.24 0 15.36 5.12l10.24 10.24v-10.24c0-15.36 10.24-25.6 25.6-25.6s25.6 10.24 25.6 25.6v10.24l10.24-10.24c5.12-5.12 10.24-5.12 15.36-5.12s15.36 5.12 20.48 10.24c10.24 10.24 5.12 25.6-5.12 35.84l-25.6 20.48zM476.16 197.12c-10.24 10.24-25.6 15.36-35.84 5.12l-15.36-10.24v10.24c0 15.36-10.24 25.6-25.6 25.6s-25.6-10.24-25.6-25.6v-10.24l-10.24 10.24c-10.24 10.24-25.6 5.12-35.84-5.12s-5.12-25.6 5.12-35.84l25.6-20.48-25.6-20.48c-10.24-10.24-15.36-25.6-5.12-35.84 5.12-5.12 10.24-10.24 20.48-10.24 5.12 0 10.24 0 15.36 5.12l10.24 10.24v-10.24c0-15.36 10.24-25.6 25.6-25.6s25.6 10.24 25.6 25.6v10.24l10.24-10.24c5.12-5.12 10.24-5.12 15.36-5.12s15.36 5.12 20.48 10.24c10.24 10.24 5.12 25.6-5.12 35.84l-25.6 20.48 25.6 20.48c15.36 10.24 15.36 25.6 10.24 35.84z" />
<glyph unicode="&#xe96c;" glyph-name="operaciones-alt-ol" d="M819.2 345.6h-614.4c-112.64 0-204.8-92.16-204.8-204.8s92.16-204.8 204.8-204.8h614.4c112.64 0 204.8 92.16 204.8 204.8s-92.16 204.8-204.8 204.8zM819.2 12.8h-614.4c-71.68 0-128 56.32-128 128s56.32 128 128 128h614.4c71.68 0 128-56.32 128-128s-56.32-128-128-128zM322.56 140.8c0-36.76-29.8-66.56-66.56-66.56s-66.56 29.8-66.56 66.56c0 36.76 29.8 66.56 66.56 66.56s66.56-29.8 66.56-66.56zM578.56 140.8c0-36.76-29.8-66.56-66.56-66.56s-66.56 29.8-66.56 66.56c0 36.76 29.8 66.56 66.56 66.56s66.56-29.8 66.56-66.56zM834.56 140.8c0-36.76-29.8-66.56-66.56-66.56s-66.56 29.8-66.56 66.56c0 36.76 29.8 66.56 66.56 66.56s66.56-29.8 66.56-66.56zM373.76 448h281.6c61.44 0 112.64 51.2 112.64 112.64v281.6c0 66.56-51.2 117.76-112.64 117.76h-281.6c-66.56 0-117.76-51.2-117.76-117.76v-281.6c0-61.44 51.2-112.64 117.76-112.64zM332.8 842.24c0 20.48 15.36 40.96 40.96 40.96h61.44v-97.28c0-30.72 20.48-51.2 51.2-51.2h61.44c30.72 0 51.2 20.48 51.2 51.2v97.28h61.44c20.48 0 40.96-15.36 40.96-40.96v-281.6c0-20.48-15.36-40.96-40.96-40.96h-286.72c-20.48 0-40.96 15.36-40.96 40.96v281.6z" />
</font>
</defs>
</svg>
